<svg xmlns="http://www.w3.org/2000/svg" width="17" height="17" viewBox="0 0 17 17">
    <g data-name="icon/16x16/Alert">
        <path data-name="Subtraction 4" d="M1915 16a8 8 0 1 1 8-8 8.009 8.009 0 0 1-8 8zm.037-5a1 1 0 0 0-.02 1.994 1.029 1.029 0 0 0 1-.977.988.988 0 0 0-.98-1.017zm-.031-7a1 1 0 0 0-.242.03 1.081 1.081 0 0 0-.764 1.037l.029.48.029.48c.028.571.062 1.153.094 1.715v.035c.033.567.07 1.209.1 1.829a.751.751 0 0 0 .743.706.743.743 0 0 0 .743-.724c.01-.124.015-.243.019-.359s.01-.244.02-.365c.019-.379.044-.769.068-1.147V7.7c.024-.378.049-.769.068-1.149v-.014c.02-.507.039-.986.078-1.47a.856.856 0 0 0-.078-.489 1.02 1.02 0 0 0-.907-.578z" transform="translate(-1906.5 .5)" style="fill:#ef7e60;stroke:transparent;stroke-miterlimit:10"/>
    </g>
</svg>
