<svg id="icon_24x24_mycard" data-name="icon/24x24/mycard" xmlns="http://www.w3.org/2000/svg" width="24" height="17" viewBox="0 0 24 17">
    <defs>
        <clipPath id="clip-path">
            <path id="Path_1002" data-name="Path 1002" class="cls-1" d="M367.375 333.112c1.362.087 4.754.087 4.754.087a3.04 3.04 0 0 1-1.538.826 18.882 18.882 0 0 1-3.462 0 2.763 2.763 0 0 1 .246-.913z"/>
        </clipPath>
        <clipPath id="clip-path-2">
            <path id="Path_1003" data-name="Path 1003" class="cls-1" d="M374.629 334.766a1.873 1.873 0 0 1-1.9 1.846h-15.2a1.873 1.873 0 0 1-1.9-1.846v-3.854c3.062.172 10.145.458 14.756-.278.8-.2 1.744-3.5 1.744-3.5s-10.018.127-16.5.014v-.686a1.873 1.873 0 0 1 1.9-1.845h15.2a1.873 1.873 0 0 1 1.9 1.845zm-1.5-12.654h-16a4 4 0 0 0-4 4v9a4 4 0 0 0 4 4h16a4 4 0 0 0 4-4v-9a4 4 0 0 0-4-4z"/>
        </clipPath>
        <style>
            .cls-1{fill:none}
        </style>
    </defs>
    <g id="Group_935" data-name="Group 935" transform="translate(-353.129 -322.112)">
        <g id="Group_934" data-name="Group 934" style="clip-path:url(#clip-path)">
            <g id="Group_767" data-name="Group 767">
                <path id="Path_807" data-name="Path 807" d="M362.129 328.112h15v11h-15z" style="fill:#ea444e"/>
            </g>
        </g>
    </g>
    <g id="Group_937" data-name="Group 937" transform="translate(-353.129 -322.112)">
        <g id="Group_936" data-name="Group 936" style="clip-path:url(#clip-path-2)">
            <g id="Group_768" data-name="Group 768">
                <path id="Path_809" data-name="Path 809" d="M348.129 317.112h34v27h-34z" style="fill:#2a295c"/>
            </g>
        </g>
    </g>
</svg>
