<svg xmlns="http://www.w3.org/2000/svg" id="icon_24x24_arrow-circle-down" width="22" height="22" viewBox="0 0 22 22">
    <defs>
        <clipPath id="clip-path">
            <path id="Path_508" d="M103-263a11 11 0 0 0 11-11 11 11 0 0 0-11-11 11 11 0 0 0-11 11 11 11 0 0 0 11 11z" class="cls-1"/>
        </clipPath>
        <clipPath id="clip-path-2">
            <path id="Path_510" d="M103.017-271.7a.744.744 0 0 1-.517-.208l-3.485-3.381a.7.7 0 0 1 0-1 .748.748 0 0 1 1.034 0l2.966 2.877 2.936-2.875a.747.747 0 0 1 1.034 0 .7.7 0 0 1 0 1l-3.453 3.381a.742.742 0 0 1-.518.21z" class="cls-1"/>
        </clipPath>
        <style>
            .cls-1{fill:none;clip-rule:evenodd}
        </style>
    </defs>
    <g id="Group_537" clip-path="url(#clip-path)" transform="translate(-92 285)">
        <path id="Path_507" fill="#e0e1f7" d="M87-290h32v32H87z"/>
    </g>
    <g id="Group_538" clip-path="url(#clip-path-2)" transform="translate(-92 285.5)">
        <path id="Path_509" fill="#8181dc" d="M93.8-281.5h18.4v14.8H93.8z"/>
    </g>
</svg>
