<svg id="icon_16x16_download" data-name="icon/16x16/download" xmlns="http://www.w3.org/2000/svg" width="13.5" height="13.5">
    <defs>
        <style>
            .cls-1{fill:#18204b}
        </style>
    </defs>
    <path id="Path_1097" data-name="Path 1097" class="cls-1" d="M621.935 413.243h-10a1.752 1.752 0 0 1-1.75-1.75v-3a.75.75 0 0 1 1.5 0v3a.25.25 0 0 0 .25.25h10a.251.251 0 0 0 .25-.25v-3a.75.75 0 0 1 1.5 0v3a1.753 1.753 0 0 1-1.75 1.75z" transform="translate(-610.185 -399.743)"/>
    <path id="Path_1098" data-name="Path 1098" class="cls-1" d="M616.935 409.243a.753.753 0 0 1-.289-.057.766.766 0 0 1-.242-.163l-3-3a.75.75 0 0 1 1.061-1.06l1.72 1.72v-6.19a.75.75 0 0 1 1.5 0v6.19l1.719-1.72a.75.75 0 0 1 1.061 1.06l-3 3a.742.742 0 0 1-.53.22z" transform="translate(-610.185 -399.743)"/>
</svg>
