<svg id="icon_24x24_walk" data-name="icon/24x24/walk" xmlns="http://www.w3.org/2000/svg" width="10" height="18.998" viewBox="0 0 10 18.998">
    <defs>
        <clipPath id="clip-path">
            <path id="Path_1045" data-name="Path 1045" class="cls-1" d="M1181.946 324.412a1.651 1.651 0 1 0-1.587-1.65 1.62 1.62 0 0 0 1.587 1.65zm.944 1.65 3.134 5.463a.78.78 0 0 1-.246 1.043.7.7 0 0 1-.375.109.721.721 0 0 1-.623-.368l-2.276-3.945-.048.292-.417 3a2.308 2.308 0 0 0 .37 1.339c.063.127.127.254.183.381.4.9.757 1.8 1.115 2.7s.715 1.8 1.113 2.7a.889.889 0 1 1-1.62.686l-.179-.4q-.341-.768-.679-1.535l-1.854-4.189c-.05.309-.085.642-.122.985a6.232 6.232 0 0 1-.83 3.031l-1.654 2.2c-.806 1.075-2.373.173-1.492-1 .325-.434.609-.866.893-1.3.259-.395.519-.79.811-1.189a6.124 6.124 0 0 0 .392-1.962c.216-1.983.43-3.19.653-4.454.1-.548.2-1.108.3-1.746l-.993.843c-.07.431-.151.815-.233 1.2s-.163.767-.233 1.2a1.339 1.339 0 0 1-.5.953.653.653 0 0 1-1.023-.72l.35-2.156a7.99 7.99 0 0 0 .045-.366c.058-.527.127-1.169.53-1.443.34-.231.724-.546 1.12-.871a5.817 5.817 0 0 1 2.433-1.5 1.992 1.992 0 0 1 1.955 1.023z"/>
        </clipPath>
        <clipPath id="clip-path-2">
            <path id="Path_1046" data-name="Path 1046" class="cls-1" d="M1181.946 324.412a1.651 1.651 0 1 0-1.587-1.65 1.62 1.62 0 0 0 1.587 1.65zm.944 1.65 3.134 5.463a.78.78 0 0 1-.246 1.043.7.7 0 0 1-.375.109.721.721 0 0 1-.623-.368l-2.276-3.945-.048.292-.417 3a2.308 2.308 0 0 0 .37 1.339c.063.127.127.254.183.381.4.9.757 1.8 1.114 2.7s.716 1.8 1.114 2.7a.889.889 0 1 1-1.62.686l-.179-.4q-.341-.768-.679-1.535l-1.854-4.189c-.05.309-.085.642-.122.985a6.232 6.232 0 0 1-.83 3.031l-1.654 2.2c-.806 1.075-2.373.173-1.492-1 .325-.434.609-.866.893-1.3.259-.395.519-.79.811-1.189a6.124 6.124 0 0 0 .392-1.962c.216-1.983.43-3.19.653-4.454.1-.548.2-1.108.3-1.746l-.993.843c-.07.431-.151.815-.233 1.2s-.163.767-.233 1.2a1.339 1.339 0 0 1-.5.953.653.653 0 0 1-1.023-.72l.35-2.156a7.99 7.99 0 0 0 .045-.366c.058-.527.127-1.169.53-1.443.34-.231.724-.546 1.12-.871a5.817 5.817 0 0 1 2.433-1.5 1.992 1.992 0 0 1 1.955 1.023z"/>
        </clipPath>
        <clipPath id="clip-path-3">
            <path id="Rectangle_59" data-name="Rectangle 59" class="cls-1" transform="translate(1169.129 318.112)" d="M0 0h24v24H0z"/>
        </clipPath>
        <clipPath id="clip-path-4">
            <path id="Rectangle_58" data-name="Rectangle 58" class="cls-1" transform="translate(1175.129 321.112)" d="M0 0h12v20H0z"/>
        </clipPath>
        <style>
            .cls-1{fill:#2a295c}
        </style>
    </defs>
    <g id="Group_1005" data-name="Group 1005" transform="translate(-1176.129 -321.112)">
        <g id="Group_1004" data-name="Group 1004" style="clip-path:url(#clip-path)">
            <g id="Group_822" data-name="Group 822">
                <path id="Path_897" data-name="Path 897" class="cls-1" d="M1171.129 316.112h20v29h-20z"/>
            </g>
        </g>
    </g>
    <g id="Group_1011" data-name="Group 1011" transform="translate(-1176.129 -321.112)">
        <g id="Group_1010" data-name="Group 1010" style="clip-path:url(#clip-path-2)">
            <g id="Group_826" data-name="Group 826">
                <g id="Group_825" data-name="Group 825">
                    <g id="Group_1009" data-name="Group 1009">
                        <g id="Group_1008" data-name="Group 1008" style="clip-path:url(#clip-path-3)">
                            <g id="Group_824" data-name="Group 824">
                                <g id="Group_1007" data-name="Group 1007">
                                    <g id="Group_1006" data-name="Group 1006" style="clip-path:url(#clip-path-4)">
                                        <g id="Group_823" data-name="Group 823">
                                            <path id="Path_899" data-name="Path 899" class="cls-1" d="M1164.129 313.112h34v34h-34z"/>
                                        </g>
                                    </g>
                                </g>
                            </g>
                        </g>
                    </g>
                </g>
            </g>
        </g>
    </g>
</svg>
