<svg data-name="icon/16x16/arrow-left" xmlns="http://www.w3.org/2000/svg" width="12.5" height="9.5" viewBox="0 0 12.5 9.5">
    <path data-name="Path 1075" d="M251.56 411.243a.744.744 0 0 1-.522-.212l-4.123-4-.011-.011a.749.749 0 0 1-.138-.191c-.01-.019-.019-.04-.028-.06a.741.741 0 0 1-.052-.257v-.019a.736.736 0 0 1 .052-.257l.028-.061a.749.749 0 0 1 .138-.191l.009-.01 4.123-4a.75.75 0 0 1 1.044 1.076l-2.8 2.712h9.15a.75.75 0 0 1 0 1.5h-9.15l2.8 2.712a.75.75 0 0 1-.522 1.288z" transform="translate(-246.685 -401.743)" style="fill:#18204b"/>
</svg>
