<svg id="icon_24x24_wheel" data-name="icon/24x24/wheel" xmlns="http://www.w3.org/2000/svg" width="22.661" height="22.675" viewBox="0 0 22.661 22.675">
    <defs>
        <style>
            .cls-1{fill:#2a295c}
        </style>
    </defs>
    <g id="Group_831" data-name="Group 831" transform="translate(-1271.797 -319.773)">
        <path id="Path_1047" data-name="Path 1047" class="cls-1" d="M1282.891 335.167h-.052a3.976 3.976 0 0 1-3.547-2.641 3.936 3.936 0 0 1 2.4-5.025l.1-.031a3.985 3.985 0 0 1 5.015 2.441 1 1 0 1 1-1.882.673 1.994 1.994 0 0 0-2.529-1.208 1.934 1.934 0 0 0-1.218 2.482 1.975 1.975 0 0 0 1.765 1.31 1 1 0 0 1-.051 2z"/>
    </g>
    <g id="Group_832" data-name="Group 832" transform="translate(-1271.797 -319.773)">
        <path id="Path_1048" data-name="Path 1048" class="cls-1" d="M1285.368 342.448h-4.479a1 1 0 0 1-1-1v-1.009a9.979 9.979 0 0 1-2.449-1.226l-.83.6a1 1 0 0 1-1.39-.214l-2.651-3.574a1 1 0 0 1 .216-1.4l.827-.6a9.664 9.664 0 0 1-.44-2.912 10.082 10.082 0 0 1 .093-1.343l-.914-.456a1 1 0 0 1-.444-1.35l2.024-3.958a1 1 0 0 1 1.341-.437l.924.468a9.914 9.914 0 0 1 3.693-2.247v-1.013a1 1 0 0 1 1-1h4.479a1 1 0 0 1 1 1v1.011a10.07 10.07 0 0 1 2.449 1.227l.831-.6a1 1 0 0 1 1.391.214l2.649 3.573a1 1 0 0 1-.216 1.4l-.828.6a9.625 9.625 0 0 1 .441 2.913 10.033 10.033 0 0 1-.093 1.342l.913.456a1 1 0 0 1 .444 1.349l-2.022 3.958a1 1 0 0 1-1.342.438l-.924-.468a9.929 9.929 0 0 1-3.693 2.246v1.012a1 1 0 0 1-1 1zm-3.479-2h2.479v-.758a1 1 0 0 1 .753-.969 7.956 7.956 0 0 0 3.987-2.422 1 1 0 0 1 1.2-.226l.693.35 1.11-2.172-.679-.339a1 1 0 0 1-.531-1.111 7.9 7.9 0 0 0 .186-1.691 7.664 7.664 0 0 0-.561-2.9 1 1 0 0 1 .339-1.185l.616-.447-1.458-1.967-.625.452a1 1 0 0 1-1.215-.032 8 8 0 0 0-3.057-1.529 1 1 0 0 1-.756-.969v-.758h-2.479v.758a1 1 0 0 1-.753.969 7.956 7.956 0 0 0-3.986 2.423 1 1 0 0 1-1.2.228l-.693-.352-1.112 2.172.68.34a1 1 0 0 1 .53 1.109 7.968 7.968 0 0 0-.185 1.693 7.671 7.671 0 0 0 .56 2.9 1 1 0 0 1-.339 1.184l-.616.448 1.46 1.969.624-.452a1 1 0 0 1 1.217.032 7.958 7.958 0 0 0 3.055 1.526 1 1 0 0 1 .756.97z"/>
    </g>
</svg>
