<svg data-name="icon/24x24/report" xmlns="http://www.w3.org/2000/svg" width="18" height="20" viewBox="0 0 18 20">
    <path data-name="Path 1067" d="M137-229a1 1 0 0 1 1 1v8a1 1 0 0 1-1 1 1 1 0 0 1-1-1v-8a1 1 0 0 1 1-1zm4 4a1 1 0 0 1 1 1v4a1 1 0 0 1-1 1 1 1 0 0 1-1-1v-4a1 1 0 0 1 1-1zm-8 2a1 1 0 0 1 1 1v2a1 1 0 0 1-1 1 1 1 0 0 1-1-1v-2a1 1 0 0 1 1-1zm7-9h-10v16h14v-12h-3a1 1 0 0 1-1-1v-3zm-12-1.008a1 1 0 0 1 1-.992h12l5 5v13.993a1 1 0 0 1-.288.709 1 1 0 0 1-.705.3h-16.014a1 1 0 0 1-.993-.992z" transform="translate(-128 234)" style="fill:#2a295c;fill-rule:evenodd"/>
</svg>
