<svg id="icon_24x24_filter" data-name="icon/24x24/filter" xmlns="http://www.w3.org/2000/svg" width="22" height="14" viewBox="0 0 22 14">
    <defs>
        <style>
            .cls-1{fill:#2a295c}
        </style>
    </defs>
    <g id="Group_730" data-name="Group 730" transform="translate(-931.154 -252.112)">
        <path id="Path_974" data-name="Path 974" class="cls-1" d="M944.154 266.112h-4a1 1 0 0 1 0-2h4a1 1 0 0 1 0 2z"/>
    </g>
    <g id="Group_731" data-name="Group 731" transform="translate(-931.154 -252.112)">
        <path id="Path_975" data-name="Path 975" class="cls-1" d="M948.154 260.112h-12a1 1 0 0 1 0-2h12a1 1 0 0 1 0 2z"/>
    </g>
    <g id="Group_732" data-name="Group 732" transform="translate(-931.154 -252.112)">
        <path id="Path_976" data-name="Path 976" class="cls-1" d="M952.154 254.112h-20a1 1 0 0 1 0-2h20a1 1 0 0 1 0 2z"/>
    </g>
</svg>
