<svg data-name="icon/24x24/megaphone" xmlns="http://www.w3.org/2000/svg" width="24" height="23" viewBox="0 0 24 23">
    <path data-name="Path 1057" d="M307.928-233.968a1.64 1.64 0 0 1 1.125.463l.11.116.1.127.087.136 1.566 2.8 1.609-.1a.726.726 0 0 1 .341.062l.106.058.1.074.088.091.064.094.915 1.6a.751.751 0 0 1 .094.456l-.022.122-.042.12-.054.1-.887 1.308 1.445 2.529a1.7 1.7 0 0 1-.924 2.449l-.13.035-.133.023-.123.011-8.391 1.6.424.743a.757.757 0 0 1 .035.682l-.057.108-.073.1-.09.089-.089.062-.959.5 1.25 2.19a2.165 2.165 0 0 1-.381 2.636l-.131.115-.132.1-.133.084a2.108 2.108 0 0 1-2.6-.384l-.114-.132-.1-.134-.085-.137-2.143-3.834-.156.05a3.479 3.479 0 0 1-3.63-1.144l-.127-.164-.113-.165-.1-.165a3.566 3.566 0 0 1 .8-4.488l.154-.122.162-.114.167-.1 3.8-2.194 5.957-7.674a1.652 1.652 0 0 1 .912-.7l.165-.042.171-.025zm-5.962 15.756-1.1.586 2.165 3.793a.621.621 0 0 0 .667.3l.095-.029.086-.042a.637.637 0 0 0 .313-.587l-.015-.1-.026-.082zm-1.159-5.73-3.309 1.934a2.029 2.029 0 0 0-1 1.748 2.03 2.03 0 0 0 .268 1.005 1.988 1.988 0 0 0 2.294.926l.152-.053.141-.062.135-.072 3.335-1.89zm2.742 4.8-.3.129.145.355.352-.147zm3.165-11.864-4.744 6.061 2.2 3.929 7.438-1.408zm1.2-1.444a.17.17 0 0 0-.078.015l-.028.019-.091.124 5.39 9.5.07-.011h.057a.177.177 0 0 0 .158-.114l.008-.045-.006-.04-.022-.049-5.319-9.318a.15.15 0 0 0-.1-.077zm8.005 3.768h.048l.106.02 1.767.479a.76.76 0 0 1 .531.93.75.75 0 0 1-.589.546l-.11.013h-.114l-.107-.02-1.767-.479a.76.76 0 0 1-.531-.93.749.749 0 0 1 .469-.514l.1-.031.109-.017zm-4.17-.248.61 1.215.262-.351-.471-.822zm6.14-4.012a.746.746 0 0 1 1.021.294.761.761 0 0 1-.041.8l-.068.087-.092.087-.09.061-2.548 1.434a.746.746 0 0 1-1.021-.294.761.761 0 0 1 .041-.8l.068-.087.092-.087.09-.061zM313.8-235h.048l.106.02a.751.751 0 0 1 .54.6l.013.111v.115l-.02.108-.474 1.787a.75.75 0 0 1-.92.537.751.751 0 0 1-.54-.6l-.013-.111v-.115l.02-.108.474-1.787a.749.749 0 0 1 .469-.514l.1-.031.108-.017z" transform="translate(-295 235)" style="fill:#2a295c;fill-rule:evenodd"/>
</svg>
