<svg id="icon_24x24_gift" data-name="icon/24x24/gift" xmlns="http://www.w3.org/2000/svg" width="20" height="21" viewBox="0 0 20 21">
    <defs>
        <clipPath id="clip-path">
            <rect id="Rectangle_52" data-name="Rectangle 52" class="cls-1" width="20" height="6" rx="1" transform="translate(1000.154 255.112)"/>
        </clipPath>
        <clipPath id="clip-path-2">
            <path id="Rectangle_51" data-name="Rectangle 51" class="cls-1" transform="translate(980.154 235.112)" d="M0 0h60v46H0z"/>
        </clipPath>
        <clipPath id="clip-path-3">
            <path id="Rectangle_50" data-name="Rectangle 50" class="cls-1" transform="translate(1000.154 255.112)" d="M0 0h20v6H0z"/>
        </clipPath>
        <style>
            .cls-1{fill:none}.cls-2{fill:#2a295c}
        </style>
    </defs>
    <g id="Group_738" data-name="Group 738" transform="translate(-1000.154 -249.112)">
        <path id="Path_982" data-name="Path 982" class="cls-2" d="M1017.154 270.112h-14a2 2 0 0 1-2-2v-8a1 1 0 0 1 1-1h16a1 1 0 0 1 1 1v8a2 2 0 0 1-2 2zm-14-9v7h14v-7z"/>
    </g>
    <g id="Group_917" data-name="Group 917" transform="translate(-1000.154 -249.112)">
        <g id="Group_916" data-name="Group 916" style="clip-path:url(#clip-path)">
            <g id="Group_743" data-name="Group 743">
                <g id="Group_742" data-name="Group 742">
                    <g id="Group_915" data-name="Group 915">
                        <g id="Group_914" data-name="Group 914" style="clip-path:url(#clip-path-2)">
                            <g id="Group_741" data-name="Group 741">
                                <g id="Group_913" data-name="Group 913">
                                    <g id="Group_912" data-name="Group 912" style="clip-path:url(#clip-path-3)">
                                        <g id="Group_740" data-name="Group 740">
                                            <g id="Group_739" data-name="Group 739">
                                                <path id="Path_983" data-name="Path 983" class="cls-2" d="M1019.154 263.112h-18a3 3 0 0 1-3-3v-4a3 3 0 0 1 3-3h18a3 3 0 0 1 3 3v4a3 3 0 0 1-3 3zm-17-4h16v-2h-16z"/>
                                            </g>
                                        </g>
                                    </g>
                                </g>
                            </g>
                        </g>
                    </g>
                </g>
            </g>
        </g>
    </g>
    <g id="Group_744" data-name="Group 744" transform="translate(-1000.154 -249.112)">
        <path id="Rectangle_53" data-name="Rectangle 53" class="cls-2" transform="translate(1009.154 256.112)" d="M0 0h2v13H0z"/>
    </g>
    <g id="Group_745" data-name="Group 745" transform="translate(-1000.154 -249.112)">
        <path id="Path_984" data-name="Path 984" class="cls-2" d="M1011.205 256.112h-5.051a4 4 0 0 1-4-4v-.3a2.7 2.7 0 0 1 2.7-2.7 6.3 6.3 0 0 1 6.29 5.943zm-6.351-5a.7.7 0 0 0-.7.7v.3a2 2 0 0 0 2 2h2.8a4.306 4.306 0 0 0-4.1-3z"/>
    </g>
    <g id="Group_746" data-name="Group 746" transform="translate(-1000.154 -249.112)">
        <path id="Path_985" data-name="Path 985" class="cls-2" d="M1014.154 256.112h-4v-1.4a5.606 5.606 0 0 1 5.6-5.6 2.4 2.4 0 0 1 2.4 2.4v.6a4 4 0 0 1-4 4zm-1.95-2h1.95a2 2 0 0 0 2-2v-.6a.4.4 0 0 0-.4-.4 3.606 3.606 0 0 0-3.554 3z"/>
    </g>
</svg>
