<svg id="icon_24x24_bell" data-name="icon/24x24/bell" xmlns="http://www.w3.org/2000/svg" width="20" height="24" viewBox="0 0 20 24">
    <defs>
        <style>
            .cls-1{fill:#2a295c}
        </style>
    </defs>
    <g id="Group_646" data-name="Group 646" transform="translate(-354.154 -247.112)">
        <path id="Path_924" data-name="Path 924" class="cls-1" d="M373.154 268.112h-18a1 1 0 0 1-1-1v-4a2 2 0 0 1 2-2h16a2 2 0 0 1 2 2v4a1 1 0 0 1-1 1zm-17-2h16v-3h-16z"/>
    </g>
    <g id="Group_647" data-name="Group 647" transform="translate(-354.154 -247.112)">
        <path id="Path_925" data-name="Path 925" class="cls-1" d="M372.154 263.112h-16v-5a8 8 0 0 1 16 0zm-14-2h12v-3a6 6 0 0 0-12 0z"/>
    </g>
    <g id="Group_648" data-name="Group 648" transform="translate(-354.154 -247.112)">
        <path id="Path_926" data-name="Path 926" class="cls-1" d="M364.154 271.112a3 3 0 0 1-3-3v-2h6v2a3 3 0 0 1-3 3zm-1-3a1 1 0 0 0 2 0z"/>
    </g>
    <g id="Group_649" data-name="Group 649" transform="translate(-354.154 -247.112)">
        <path id="Path_927" data-name="Path 927" class="cls-1" d="M364.154 251.112a1 1 0 0 1-1-1v-2a1 1 0 0 1 2 0v2a1 1 0 0 1-1 1z"/>
    </g>
</svg>
