<svg id="icon_24x24_person" data-name="icon/24x24/person" xmlns="http://www.w3.org/2000/svg" width="20.046" height="24.005" viewBox="0 0 20.046 24.005">
    <defs>
        <style>
            .cls-1{fill:#2a295c}
        </style>
    </defs>
    <g id="Group_782" data-name="Group 782" transform="translate(-559.106 -319.112)">
        <path id="Path_1016" data-name="Path 1016" class="cls-1" d="M569.124 343.117a19.142 19.142 0 0 1-8.1-1.8l-1.922-.887.047-.687c.294-4.28 3.367-7.632 7-7.632h5.956c3.629 0 6.7 3.352 7 7.631l.047.691-1.985.907a19.125 19.125 0 0 1-8.043 1.777zm-7.9-3.911.646.3a17.111 17.111 0 0 0 14.461.022l.7-.321c-.46-2.9-2.527-5.092-4.926-5.092h-5.956c-2.399-.003-4.467 2.185-4.925 5.091z"/>
    </g>
    <g id="Group_783" data-name="Group 783" transform="translate(-559.106 -319.112)">
        <path id="Path_1017" data-name="Path 1017" class="cls-1" d="M569.16 331.112a5.149 5.149 0 0 1-5.031-5.277v-1.476a5.007 5.007 0 1 1 10 .029v1.463a5.138 5.138 0 0 1-4.969 5.261zm-.063-10a3.122 3.122 0 0 0-2.968 3.218v1.535a3.008 3.008 0 1 0 6 .029v-1.535a3.14 3.14 0 0 0-3.029-3.247z"/>
    </g>
</svg>
