<svg xmlns="http://www.w3.org/2000/svg" width="17" height="17" viewBox="0 0 17 17">
    <g data-name="icon/16x16/check-circle">
        <path data-name="Subtraction 5" d="M1915 16a8 8 0 1 1 8-8 8.009 8.009 0 0 1-8 8zm-3.268-8.694a.66.66 0 0 0-.517.238.911.911 0 0 0 0 1.17l.621.689.134.148 1.181 1.309.141.156.027.03.1.115a.711.711 0 0 0 1.059 0l.474-.524.009-.01.974-1.077 1.128-1.245.034-.038 1.155-1.275c.174-.194.35-.39.526-.583a.9.9 0 0 0 0-1.17.762.762 0 0 0-.542-.236.69.69 0 0 0-.516.236l-1.456 1.61q-.864.952-1.727 1.907l-.06.067-.531.587-.7-.78-.7-.78-.107-.119-.008-.008-.018-.02-.139-.155a.729.729 0 0 0-.543-.241z" transform="translate(-1906.499 .5)" style="fill:#54b4ab;stroke:transparent;stroke-miterlimit:10"/>
    </g>
</svg>
