<svg data-name="icon/16x16/warning" xmlns="http://www.w3.org/2000/svg" width="15.837" height="13.756" viewBox="0 0 15.837 13.756">
    <path data-name="Path 1143" d="m1222.636 411.776-6.922-11.8a1 1 0 0 0-1.721 0l-6.922 11.8a.979.979 0 0 0 .852 1.473h13.844a.981.981 0 0 0 .869-1.473zm-8-8.183a.907.907 0 0 1 1.026.479.747.747 0 0 1 .07.428c-.035.428-.052.856-.07 1.3-.035.667-.087 1.352-.121 2.02-.018.205-.018.411-.035.633a.653.653 0 0 1-.661.634.661.661 0 0 1-.661-.617c-.052-1.044-.122-2.088-.174-3.133l-.052-.839a.942.942 0 0 1 .678-.905zm.226 7.841a.868.868 0 0 1-.869-.873.884.884 0 0 1 .887-.873.872.872 0 0 1 .869.89.9.9 0 0 1-.887.856z" transform="translate(-1206.935 -399.493)" style="fill:#ea444e;fill-rule:evenodd"/>
</svg>
