<svg data-name="icon/24x24/business-affiliation" xmlns="http://www.w3.org/2000/svg" width="24.088" height="23.666" viewBox="0 0 24.088 23.666">
    <path data-name="Path 1050" d="M439.732 264.867a3.131 3.131 0 0 1-2.766 3.351h-.378l.029-4.193a4.349 4.349 0 0 0-3.988-4.681 4.074 4.074 0 0 0-.469-.012 4.483 4.483 0 0 0-4.474 4.492c0 .067 0 .134.005.2l.028 4.278-.378-.005a3.13 3.13 0 0 1-2.765-3.35l-.1-8.618h.131a7.218 7.218 0 0 0 2.256-.324l.359-.125a5.793 5.793 0 0 0 2.368.449 5.421 5.421 0 0 0 2.564-.948 5.428 5.428 0 0 0 2.563.948 5.8 5.8 0 0 0 2.369-.449l.359.125a7.217 7.217 0 0 0 2.256.324h.131zm-10.2 3.454.082-4.542a2.658 2.658 0 0 1 2.5-2.484 2.358 2.358 0 0 1 2.564 2.132 2.3 2.3 0 0 1 .006.352l.081 4.469zm-6.9-16.706c.513-2.051 1.953-2.946 4.126-3.036h.255l-.016.012a5.142 5.142 0 0 0-1.727 2.867 4.023 4.023 0 0 0 .4 3.145 3.925 3.925 0 0 1-.89.1c-2.049-.005-2.592-1.285-2.14-3.091zm4.984 0a3.678 3.678 0 0 1 3.226-2.945 29.847 29.847 0 0 0-.232 5.839 1.859 1.859 0 0 1-.842.189c-2.054 0-2.6-1.28-2.144-3.086zm5.161-3.024a3.834 3.834 0 0 1 3.9 3.024c.452 1.8-.091 3.083-2.152 3.083a2.027 2.027 0 0 1-1.813-.872c-.011-1.314-.016-3.34.073-5.235zm4.757-.012c2.172.09 3.613.985 4.127 3.036.451 1.8-.092 3.083-2.154 3.083a3.918 3.918 0 0 1-.89-.1 4.027 4.027 0 0 0 .4-3.145 5.149 5.149 0 0 0-1.728-2.867l-.015-.012zm6.471 2.879c-.676-2.9-3.143-4.213-6.035-4.335v-.011l-.117.006c-.109 0-.219-.006-.329-.006l-4.6.007c-.127 0-.254-.007-.381-.007v.008h-.783v-.008c-.128 0-.255 0-.382.007l-4.6-.007c-.111 0-.22 0-.329.006l-.115-.006v.011c-2.892.122-5.36 1.437-6.035 4.335a3.6 3.6 0 0 0 1.791 4.356l-.037 8.9c.051 2.969 1.326 5.317 5.146 6.048h.88l-.006.016 4.045-.008 3.979.008v-.016h1.024c3.82-.731 5.1-3.079 5.145-6.048l-.037-8.9a3.6 3.6 0 0 0 1.784-4.356z" transform="translate(-420.112 -247.112)" style="fill:#2a295c"/>
    <path data-name="Path 1051" d="M426.7 248.712a3.648 3.648 0 0 0-3.06 2.9c-.407 1.623 0 2.813 1.593 3.036a2.5 2.5 0 0 0-.143.019 2.018 2.018 0 0 1-.3.028c-2.061 0-2.6-1.281-2.152-3.083.514-2.051 1.953-2.946 4.126-3.036h.255l-.012.008a1.617 1.617 0 0 0-.2.077.692.692 0 0 1-.107.051zm10.841-.133c2.173.09 3.612.985 4.126 3.036.452 1.8-.091 3.083-2.152 3.083a2 2 0 0 1-.3-.028c-.047-.007-.094-.014-.143-.019 1.589-.223 2-1.413 1.593-3.036-.423-1.69-3.258-2.994-3.365-3.024l-.012-.008zm-8.919 3.036a7.477 7.477 0 0 1 2.045-2.761c.1-.1.168-.161.184-.183a3.679 3.679 0 0 0-3.229 2.944c-.451 1.8.092 3.083 2.153 3.083a2.211 2.211 0 0 0 .429-.048c-1.579-.226-1.986-1.416-1.581-3.038zm4.163-3.024c2.046.142 3.4 1.045 3.9 3.024.451 1.8-.092 3.083-2.153 3.083a3.106 3.106 0 0 1-.481-.044c1.62-.209 2.043-1.4 1.634-3.039-.347-1.384-2.272-2.618-2.779-2.943a1.425 1.425 0 0 1-.121-.082z" transform="translate(-420.112 -247.112)" style="fill:#ea444e"/>
</svg>
