<svg data-name="icon/24x24/heart" xmlns="http://www.w3.org/2000/svg" width="23.036" height="21.151" viewBox="0 0 23.036 21.151">
    <path data-name="Path 1059" d="M1.945-14.1a6.825 6.825 0 0 1 1.414-4.587A3.676 3.676 0 0 1 6.241-20c2.008.047 4.342 1.856 4.342 5.9a.96.96 0 0 0 .96.96.96.96 0 0 0 .96-.96c0-4.048 2.333-5.856 4.341-5.9a3.676 3.676 0 0 1 2.883 1.317 6.825 6.825 0 0 1 1.414 4.583 6.778 6.778 0 0 1-1.091 3.381 17.736 17.736 0 0 1-2.772 3.431 31.49 31.49 0 0 1-5.734 4.449 31.5 31.5 0 0 1-5.736-4.449 17.734 17.734 0 0 1-2.772-3.431A6.778 6.778 0 0 1 1.945-14.1zM11.057-.905a32.665 32.665 0 0 1-6.6-5.018 19.63 19.63 0 0 1-3.072-3.816A8.666 8.666 0 0 1 .025-14.1a8.714 8.714 0 0 1 1.886-5.848 5.6 5.6 0 0 1 4.376-1.975 6.09 6.09 0 0 1 5.256 3.5 6.089 6.089 0 0 1 5.257-3.5 5.6 5.6 0 0 1 4.376 1.976 8.714 8.714 0 0 1 1.885 5.847 8.666 8.666 0 0 1-1.36 4.36 19.628 19.628 0 0 1-3.072 3.815A32.614 32.614 0 0 1 12-.891a.959.959 0 0 1-.943-.014z" transform="translate(-.025 21.924)" style="fill:#2a295c;fill-rule:evenodd"/>
</svg>
