<svg xmlns="http://www.w3.org/2000/svg" width="23" height="23" viewBox="0 0 23 23">
    <g data-name="icon/24x24/plus-circle-fill">
        <path data-name="Subtraction 2" d="M1918 22a11 11 0 0 1-7.778-18.778 11 11 0 1 1 15.556 15.556A10.928 10.928 0 0 1 1918 22zm-4.626-10.438h4.061v4.106a.578.578 0 0 0 .567.583h.04a.578.578 0 0 0 .526-.622V11.56h4.112a.576.576 0 0 0 .573-.562v-.041a.578.578 0 0 0-.571-.524h-4.112V6.33a.578.578 0 0 0-.568-.584h-.041a.574.574 0 0 0-.521.621v4.064h-4.072a.456.456 0 0 0-.05 0 .563.563 0 0 0-.562.564v.041a.57.57 0 0 0 .569.521h.053z" transform="translate(-1906.5 .5)" style="fill:#2a295c;stroke:transparent;stroke-miterlimit:10"/>
    </g>
</svg>
