<svg id="icon_24x24_wallet" data-name="icon/24x24/wallet" xmlns="http://www.w3.org/2000/svg" width="23.827" height="22.688" viewBox="0 0 23.827 22.688">
    <defs>
        <clipPath id="clip-path">
            <path id="Path_1049" data-name="Path 1049" d="m1206.9 336.6 2.882-.208-2.159-1.558 1.991-2.379-2.849.929-.4-2.759-.943 1.831c.013.506.025 1.064.036 1.7.026 1.458.046 2.328.061 3.7l1.22 1.615z" style="fill:none"/>
        </clipPath>
        <style>
            .cls-4{fill:#2a295c}
        </style>
    </defs>
    <g id="Group_843" data-name="Group 843" transform="translate(-1203.218 -319.424)">
        <g id="Group_1013" data-name="Group 1013">
            <g id="Group_1012" data-name="Group 1012" style="clip-path:url(#clip-path)">
                <g id="Group_842" data-name="Group 842">
                    <path id="Path_920" data-name="Path 920" d="M1200.423 325.625h14.358v18.844h-14.358z" style="fill:#ea444e"/>
                </g>
            </g>
        </g>
        <g id="Group_841" data-name="Group 841">
            <path id="Path_917" data-name="Path 917" class="cls-4" d="M1221.368 342.112h-14.586a3.569 3.569 0 0 1-3.564-3.565V326.1a1.131 1.131 0 0 1 .06-.369 3.571 3.571 0 0 1 3.5-2.9h2.675a1.135 1.135 0 0 1 0 2.269h-2.675a1.3 1.3 0 0 0 0 2.593h14.022v-1.462a1.137 1.137 0 0 0-1.138-1.131h-2.572a1.135 1.135 0 1 1 0-2.269h2.572a3.407 3.407 0 0 1 3.4 3.4v1.7a2.842 2.842 0 0 1 1.7 2.6v1.944a1.134 1.134 0 0 1-2.269 0v-1.944a.568.568 0 0 0-.567-.567h-15.145a3.567 3.567 0 0 1-1.3-.244v8.832a1.3 1.3 0 0 0 1.3 1.3h14.586a1.136 1.136 0 0 0 1.134-1.134v-1.7a1.135 1.135 0 1 1 2.269 0v1.7a3.408 3.408 0 0 1-3.402 3.394z"/>
            <path id="Path_918" data-name="Path 918" class="cls-4" d="M1225.906 337.574h-3.97a2.836 2.836 0 0 1 0-5.672h3.97a1.136 1.136 0 0 1 1.139 1.133v3.4a1.137 1.137 0 0 1-1.134 1.138zm-3.97-3.97a1.134 1.134 0 1 0 0 2.269h3.4V333.6z"/>
            <path id="Path_919" data-name="Path 919" class="cls-4" d="M1206.053 329.634a1.134 1.134 0 0 1-.891-1.835l6.239-7.941a1.133 1.133 0 0 1 1.592-.191l.02.016 9.643 7.941a1.135 1.135 0 1 1-1.442 1.752l-8.749-7.2-5.522 7.029a1.134 1.134 0 0 1-.89.429z"/>
        </g>
    </g>
</svg>
