<svg xmlns="http://www.w3.org/2000/svg" width="23" height="23" viewBox="0 0 23 23">
    <g data-name="icon/24x24/close-circle">
        <path data-name="Subtraction 1" d="M1918 22a11 11 0 0 1-7.778-18.778 11 11 0 1 1 15.556 15.556A10.928 10.928 0 0 1 1918 22zm.007-9.7 3.961 3.964a.919.919 0 0 0 1.3 0 .922.922 0 0 0 0-1.3L1919.307 11l3.96-3.964a.923.923 0 0 0 0-1.3.918.918 0 0 0-1.3 0l-3.962 3.964-3.976-3.965a.92.92 0 0 0-1.3 0 .925.925 0 0 0 0 1.3L1916.7 11l-3.955 3.965a.919.919 0 0 0 .651 1.569.91.91 0 0 0 .65-.269l3.961-3.964z" transform="translate(-1906.5 .5)" style="fill:#2a295c;stroke:transparent;stroke-miterlimit:10"/>
    </g>
</svg>
