<svg id="icon_16x16_pen" data-name="icon/16x16/pen" xmlns="http://www.w3.org/2000/svg" width="15.593" height="15.582" viewBox="0 0 15.593 15.582">
    <defs>
        <clipPath id="clip-path">
            <path id="Path_1129" data-name="Path 1129" d="m952.837 409.711 7.047-7.046-1.121-1.121-7.047 7.046zm7.047-7.046a.793.793 0 0 0-1.121-1.121z" style="fill:none"/>
        </clipPath>
        <style>
            .cls-2{fill:#18204b}
        </style>
    </defs>
    <path id="Path_1128" data-name="Path 1128" class="cls-2" d="M952.377 414.129H947.3v-5.091l9.449-9.486a3.711 3.711 0 0 1 5.079 0 3.293 3.293 0 0 1 1.065 2.511 3.408 3.408 0 0 1-1.1 2.543zm-3.578-1.5h2.955l9.009-9.113a1.951 1.951 0 0 0 .629-1.453 1.84 1.84 0 0 0-.591-1.418 2.185 2.185 0 0 0-3.008-.017l-8.994 9.029z" transform="translate(-947.299 -398.547)"/>
    <g id="Group_1131" data-name="Group 1131" transform="translate(-947.299 -398.547)">
        <g id="Group_1130" data-name="Group 1130" style="clip-path:url(#clip-path)">
            <path id="Rectangle_100" data-name="Rectangle 100" class="cls-2" transform="translate(946.716 396.311)" d="M0 0h18.4v18.4H0z"/>
        </g>
    </g>
    <path id="Rectangle_101" data-name="Rectangle 101" class="cls-2" transform="rotate(-45 13.902 4.452)" d="M0 0h1.5v5.481H0z"/>
</svg>
