<svg id="icon_24x24_on-off" data-name="icon/24x24/on-off" xmlns="http://www.w3.org/2000/svg" width="18.24" height="20.73" viewBox="0 0 18.24 20.73">
    <defs>
        <style>
            .cls-1{fill:#2a295c}
        </style>
    </defs>
    <g id="Group_769" data-name="Group 769" transform="translate(-390.129 -320.112)">
        <path id="Path_1004" data-name="Path 1004" class="cls-1" d="M399.129 332.112a1 1 0 0 1-1-1v-10a1 1 0 1 1 2 0v10a1 1 0 0 1-1 1z"/>
    </g>
    <g id="Group_770" data-name="Group 770" transform="translate(-390.129 -320.112)">
        <path id="Path_1005" data-name="Path 1005" class="cls-1" d="M400.089 340.842h-1.68a8.291 8.291 0 0 1-8.28-8.28v-1.68a8.265 8.265 0 0 1 3.244-6.566 1 1 0 1 1 1.211 1.592 6.255 6.255 0 0 0-2.455 4.971v1.683a6.289 6.289 0 0 0 6.28 6.28h1.68a6.289 6.289 0 0 0 6.28-6.28v-1.68a6.26 6.26 0 0 0-2.456-4.974 1 1 0 0 1 1.211-1.592 8.267 8.267 0 0 1 3.245 6.569v1.677a8.292 8.292 0 0 1-8.28 8.28z"/>
    </g>
</svg>
