<svg data-name="icon/16x16/globe" xmlns="http://www.w3.org/2000/svg" width="14" height="14" viewBox="0 0 14 14">
    <defs>
        <clipPath id="a">
            <path data-name="Path 1115" d="M775.035 411.673a9.505 9.505 0 0 0 .77-2.38h1.96a5.682 5.682 0 0 1-2.73 2.38zm-6.93-2.38h1.96a9.505 9.505 0 0 0 .77 2.38 5.682 5.682 0 0 1-2.735-2.38zm2.73-7.98a7.32 7.32 0 0 0-.77 2.38H768.1a5.682 5.682 0 0 1 2.735-2.38zm2.1-.42c.28 0 1.05.98 1.47 2.8h-2.94c.42-1.82 1.19-2.8 1.47-2.8zm-5.6 5.6a4.515 4.515 0 0 1 .21-1.4h2.31a14.034 14.034 0 0 0 0 2.8h-2.31a4.515 4.515 0 0 1-.21-1.4zm3.92 1.4a14.034 14.034 0 0 1 0-2.8h3.36a14.034 14.034 0 0 1 0 2.8zm1.68 4.2c-.28 0-1.05-.98-1.47-2.8h2.94c-.42 1.82-1.19 2.8-1.47 2.8zm5.6-5.6a4.513 4.513 0 0 1-.21 1.4h-2.31a14.034 14.034 0 0 0 0-2.8h2.31a4.513 4.513 0 0 1 .21 1.4zm-.77-2.8H775.8a9.505 9.505 0 0 0-.77-2.38 5.682 5.682 0 0 1 2.735 2.38zm-4.83-4.2a7 7 0 1 0 7 7 7.021 7.021 0 0 0-7-7z" style="fill:none"/>
        </clipPath>
    </defs>
    <g data-name="Group 1108" transform="translate(-765.935 -399.493)" style="clip-path:url(#a)">
        <path data-name="Rectangle 88" transform="translate(760.935 394.493)" style="fill:#18204b" d="M0 0h24v24H0z"/>
    </g>
</svg>
