<svg id="icon_16x16_eye-open" data-name="icon/16x16/eye-open" xmlns="http://www.w3.org/2000/svg" width="14" height="8" viewBox="0 0 14 8">
    <defs>
        <clipPath id="clip-path">
            <path id="Path_1101" data-name="Path 1101" d="M668.935 409.493a3 3 0 1 0-3-3 3 3 0 0 0 3 3zm0 1c3.866 0 7-4 7-4s-3.134-4-7-4-7 4-7 4 3.134 4 7 4z" style="clip-rule:evenodd;fill:none"/>
        </clipPath>
        <clipPath id="clip-path-2">
            <circle id="Ellipse_22" data-name="Ellipse 22" cx="1" cy="1" r="1" transform="translate(667.935 405.493)" style="fill:none"/>
        </clipPath>
        <style>
            .cls-4{fill:#18204b}
        </style>
    </defs>
    <g id="Group_1093" data-name="Group 1093" transform="translate(-661.935 -402.493)">
        <g id="Group_1092" data-name="Group 1092" style="clip-path:url(#clip-path)">
            <path id="Rectangle_80" data-name="Rectangle 80" class="cls-4" transform="translate(656.935 397.493)" d="M0 0h24v18H0z"/>
        </g>
    </g>
    <g id="Group_1095" data-name="Group 1095" transform="translate(-661.935 -402.493)">
        <g id="Group_1094" data-name="Group 1094" style="clip-path:url(#clip-path-2)">
            <path id="Rectangle_81" data-name="Rectangle 81" class="cls-4" transform="translate(662.935 400.493)" d="M0 0h12v12H0z"/>
        </g>
    </g>
</svg>
