<svg id="icon_24x24_Dashboard" data-name="icon/24x24/Dashboard" xmlns="http://www.w3.org/2000/svg" width="20" height="18" viewBox="0 0 20 18">
    <defs>
        <clipPath id="clip-path">
            <rect id="Rectangle_40" data-name="Rectangle 40" class="cls-1" width="8" height="8" rx="1" transform="translate(694.154 250.112)"/>
        </clipPath>
        <clipPath id="clip-path-2">
            <path id="Rectangle_39" data-name="Rectangle 39" class="cls-1" transform="translate(674.154 230.112)" d="M0 0h48v48H0z"/>
        </clipPath>
        <clipPath id="clip-path-3">
            <path id="Rectangle_38" data-name="Rectangle 38" class="cls-1" transform="translate(694.154 250.112)" d="M0 0h8v8H0z"/>
        </clipPath>
        <clipPath id="clip-path-4">
            <rect id="Rectangle_43" data-name="Rectangle 43" class="cls-1" width="10" height="8" rx="1" transform="translate(704.154 250.112)"/>
        </clipPath>
        <clipPath id="clip-path-5">
            <path id="Rectangle_42" data-name="Rectangle 42" class="cls-1" transform="translate(684.154 230.112)" d="M0 0h50v48H0z"/>
        </clipPath>
        <clipPath id="clip-path-6">
            <path id="Rectangle_41" data-name="Rectangle 41" class="cls-1" transform="translate(704.154 250.112)" d="M0 0h10v8H0z"/>
        </clipPath>
        <clipPath id="clip-path-7">
            <rect id="Rectangle_46" data-name="Rectangle 46" class="cls-1" width="8" height="8" rx="1" transform="translate(706.154 260.112)"/>
        </clipPath>
        <clipPath id="clip-path-8">
            <path id="Rectangle_45" data-name="Rectangle 45" class="cls-1" transform="translate(686.154 240.112)" d="M0 0h48v48H0z"/>
        </clipPath>
        <clipPath id="clip-path-9">
            <path id="Rectangle_44" data-name="Rectangle 44" class="cls-1" transform="translate(706.154 260.112)" d="M0 0h8v8H0z"/>
        </clipPath>
        <clipPath id="clip-path-10">
            <rect id="Rectangle_49" data-name="Rectangle 49" class="cls-1" width="10" height="8" rx="1" transform="translate(694.154 260.112)"/>
        </clipPath>
        <clipPath id="clip-path-11">
            <path id="Rectangle_48" data-name="Rectangle 48" class="cls-1" transform="translate(674.154 240.112)" d="M0 0h50v48H0z"/>
        </clipPath>
        <clipPath id="clip-path-12">
            <path id="Rectangle_47" data-name="Rectangle 47" class="cls-1" transform="translate(694.154 260.112)" d="M0 0h10v8H0z"/>
        </clipPath>
        <style>
            .cls-1{fill:#2a295c}
        </style>
    </defs>
    <g id="Group_882" data-name="Group 882" transform="translate(-694.154 -250.112)" style="clip-path:url(#clip-path)">
        <g id="Group_701" data-name="Group 701">
            <g id="Group_700" data-name="Group 700">
                <g id="Group_881" data-name="Group 881">
                    <g id="Group_880" data-name="Group 880" style="clip-path:url(#clip-path-2)">
                        <g id="Group_699" data-name="Group 699">
                            <g id="Group_879" data-name="Group 879">
                                <g id="Group_878" data-name="Group 878" style="clip-path:url(#clip-path-3)">
                                    <g id="Group_698" data-name="Group 698">
                                        <g id="Group_697" data-name="Group 697">
                                            <path id="Path_959" data-name="Path 959" class="cls-1" d="M701.154 260.112h-6a3 3 0 0 1-3-3v-6a3 3 0 0 1 3-3h6a3 3 0 0 1 3 3v6a3 3 0 0 1-3 3zm-5-4h4v-4h-4z"/>
                                        </g>
                                    </g>
                                </g>
                            </g>
                        </g>
                    </g>
                </g>
            </g>
        </g>
    </g>
    <g id="Group_888" data-name="Group 888" transform="translate(-694.154 -250.112)" style="clip-path:url(#clip-path-4)">
        <g id="Group_706" data-name="Group 706">
            <g id="Group_705" data-name="Group 705">
                <g id="Group_887" data-name="Group 887">
                    <g id="Group_886" data-name="Group 886" style="clip-path:url(#clip-path-5)">
                        <g id="Group_704" data-name="Group 704">
                            <g id="Group_885" data-name="Group 885">
                                <g id="Group_884" data-name="Group 884" style="clip-path:url(#clip-path-6)">
                                    <g id="Group_703" data-name="Group 703">
                                        <g id="Group_702" data-name="Group 702">
                                            <path id="Path_960" data-name="Path 960" class="cls-1" d="M713.154 260.112h-8a3 3 0 0 1-3-3v-6a3 3 0 0 1 3-3h8a3 3 0 0 1 3 3v6a3 3 0 0 1-3 3zm-7-4h6v-4h-6z"/>
                                        </g>
                                    </g>
                                </g>
                            </g>
                        </g>
                    </g>
                </g>
            </g>
        </g>
    </g>
    <g id="Group_894" data-name="Group 894" transform="translate(-694.154 -250.112)" style="clip-path:url(#clip-path-7)">
        <g id="Group_711" data-name="Group 711">
            <g id="Group_710" data-name="Group 710">
                <g id="Group_893" data-name="Group 893">
                    <g id="Group_892" data-name="Group 892" style="clip-path:url(#clip-path-8)">
                        <g id="Group_709" data-name="Group 709">
                            <g id="Group_891" data-name="Group 891">
                                <g id="Group_890" data-name="Group 890" style="clip-path:url(#clip-path-9)">
                                    <g id="Group_708" data-name="Group 708">
                                        <g id="Group_707" data-name="Group 707">
                                            <path id="Path_961" data-name="Path 961" class="cls-1" d="M713.154 270.112h-6a3 3 0 0 1-3-3v-6a3 3 0 0 1 3-3h6a3 3 0 0 1 3 3v6a3 3 0 0 1-3 3zm-5-4h4v-4h-4z"/>
                                        </g>
                                    </g>
                                </g>
                            </g>
                        </g>
                    </g>
                </g>
            </g>
        </g>
    </g>
    <g id="Group_900" data-name="Group 900" transform="translate(-694.154 -250.112)" style="clip-path:url(#clip-path-10)">
        <g id="Group_716" data-name="Group 716">
            <g id="Group_715" data-name="Group 715">
                <g id="Group_899" data-name="Group 899">
                    <g id="Group_898" data-name="Group 898" style="clip-path:url(#clip-path-11)">
                        <g id="Group_714" data-name="Group 714">
                            <g id="Group_897" data-name="Group 897">
                                <g id="Group_896" data-name="Group 896" style="clip-path:url(#clip-path-12)">
                                    <g id="Group_713" data-name="Group 713">
                                        <g id="Group_712" data-name="Group 712">
                                            <path id="Path_962" data-name="Path 962" class="cls-1" d="M703.154 270.112h-8a3 3 0 0 1-3-3v-6a3 3 0 0 1 3-3h8a3 3 0 0 1 3 3v6a3 3 0 0 1-3 3zm-7-4h6v-4h-6z"/>
                                        </g>
                                    </g>
                                </g>
                            </g>
                        </g>
                    </g>
                </g>
            </g>
        </g>
    </g>
</svg>
