<svg id="icon_24x24_PDF" data-name="icon/24x24/PDF" xmlns="http://www.w3.org/2000/svg" width="18" height="24" viewBox="0 0 18 24">
    <defs>
        <clipPath id="clip-path">
            <path id="Path_1012" data-name="Path 1012" class="cls-1" d="M508.254 339.852a1.405 1.405 0 0 1-1.425 1.385h-11.4a1.405 1.405 0 0 1-1.429-1.385v-17.48a1.4 1.4 0 0 1 1.414-1.385h7.986v1.156a3 3 0 0 0 3 3h1.854zm-3.125-18.74 2 2h-1.058a1.078 1.078 0 0 1-.942-1.194zm4.988 2.156-4.8-4.156h-10.188a3 3 0 0 0-3 3v18a3 3 0 0 0 3 3h12a3 3 0 0 0 3-3z"/>
        </clipPath>
        <clipPath id="clip-path-2">
            <path id="Path_1013" data-name="Path 1013" class="cls-1" d="M502.718 331.812c-.3-.255-.6-.574-.942-.915a5.49 5.49 0 0 1-.706-1c.406-1.383.6-2.7.171-3.34a.983.983 0 0 0-.878-.447.9.9 0 0 0-.9.553c-.342.766.172 2.17.792 3.319a27.075 27.075 0 0 1-.642 1.809c-.15.362-.321.723-.492 1.064-1.755.681-2.825 1.447-2.975 2.17a.847.847 0 0 0 .342.872.966.966 0 0 0 .578.213 1.07 1.07 0 0 0 .257-.043c.813-.213 1.691-1.4 2.333-2.617a12.338 12.338 0 0 1 1.327-.426q.867-.255 1.541-.383a3.785 3.785 0 0 0 2.162 1.021 1.419 1.419 0 0 0 1.134-.468.763.763 0 0 0 .214-.979c-.384-.592-1.561-.72-3.316-.403zm-5.608 3.511a.213.213 0 0 1-.171-.021c-.086-.064-.086-.106-.064-.149.042-.255.535-.724 1.6-1.234a3.518 3.518 0 0 1-1.365 1.406zm3.039-8.362c.022-.043.043-.106.214-.106a.318.318 0 0 1 .257.106 2.893 2.893 0 0 1-.064 1.915 3.085 3.085 0 0 1-.407-1.913zm.6 5.319-.643.191c.065-.149.129-.3.193-.426.15-.4.321-.809.471-1.234a5.14 5.14 0 0 0 .471.6c.193.213.385.4.578.6-.343.08-.706.165-1.07.271zm4.516.383a.718.718 0 0 1-.578.234 2.215 2.215 0 0 1-1.156-.447c1.242-.168 1.948-.038 1.734.215z"/>
        </clipPath>
        <style>
            .cls-1{fill:none}
        </style>
    </defs>
    <g id="Group_945" data-name="Group 945" transform="translate(-492.129 -319.112)">
        <g id="Group_944" data-name="Group 944" style="clip-path:url(#clip-path)">
            <g id="Group_777" data-name="Group 777">
                <path id="Path_822" data-name="Path 822" d="M487.129 314.112h28v34h-28z" style="fill:#28275d"/>
            </g>
        </g>
    </g>
    <g id="Group_947" data-name="Group 947" transform="translate(-492.129 -319.112)">
        <g id="Group_946" data-name="Group 946" style="clip-path:url(#clip-path-2)">
            <g id="Group_778" data-name="Group 778">
                <path id="Path_824" data-name="Path 824" d="M491.129 321.112h20v20h-20z" style="fill:#ea444e"/>
            </g>
        </g>
    </g>
</svg>
