<svg id="icon_24x24_arrow-circle-right" data-name="icon/24x24/arrow-circle-right" xmlns="http://www.w3.org/2000/svg" width="22" height="22">
    <defs>
        <clipPath id="clip-path">
            <path id="Path_661" data-name="Path 661" class="cls-1" d="M237-213a11 11 0 0 0 11-11 11 11 0 0 0-11-11 11 11 0 0 0-11 11 11 11 0 0 0 11 11z"/>
        </clipPath>
        <clipPath id="clip-path-2">
            <path id="Path_663" data-name="Path 663" class="cls-1" d="M240-223.816a.744.744 0 0 1-.208.517l-3.381 3.485a.7.7 0 0 1-1 0 .748.748 0 0 1 0-1.034l2.877-2.966-2.875-2.936a.747.747 0 0 1 0-1.034.7.7 0 0 1 1 0l3.381 3.453a.738.738 0 0 1 .2.4z"/>
        </clipPath>
        <style>
            .cls-1{fill:none;clip-rule:evenodd}
        </style>
    </defs>
    <g id="Group_638" data-name="Group 638" transform="translate(-226 235)" style="clip-path:url(#clip-path)">
        <path id="Path_660" data-name="Path 660" d="M221-240h32v32h-32z" style="fill:#e0e1f7"/>
    </g>
    <g id="Group_639" data-name="Group 639" transform="translate(-226 235)" style="clip-path:url(#clip-path-2)">
        <path id="Path_662" data-name="Path 662" d="M230.2-233H245v18.4h-14.8z" style="fill:#8181dc"/>
    </g>
</svg>
