<svg id="icon_16x16_lock" data-name="icon/16x16/lock" xmlns="http://www.w3.org/2000/svg" width="9.5" height="13.5" viewBox="0 0 9.5 13.5">
    <defs>
        <clipPath id="clip-path">
            <path id="Path_1122" data-name="Path 1122" d="m877.9 409.538-.5-.938a.238.238 0 0 1 .071-.3.716.716 0 0 0 .255-.736.786.786 0 0 0-.614-.559.8.8 0 0 0-.981.733.72.72 0 0 0 .278.562.231.231 0 0 1 .068.293l-.5.941a.316.316 0 0 0 .3.455h1.323a.316.316 0 0 0 .3-.451z" style="fill:none"/>
        </clipPath>
        <style>
            .cls-2{fill:#18204b}
        </style>
    </defs>
    <path id="Path_1120" data-name="Path 1120" class="cls-2" d="M879.187 413.243h-4.505a2.5 2.5 0 0 1-2.5-2.5v-4.507a2.5 2.5 0 0 1 2.5-2.5h4.505a2.5 2.5 0 0 1 2.5 2.5v4.507a2.5 2.5 0 0 1-2.5 2.5zm-4.505-8a1 1 0 0 0-1 1v4.507a1 1 0 0 0 1 1h4.505a1 1 0 0 0 1-1v-4.507a1 1 0 0 0-1-1z" transform="translate(-872.185 -399.743)"/>
    <path id="Path_1121" data-name="Path 1121" class="cls-2" d="M878.935 405.243h-4a.75.75 0 0 1-.75-.75v-2a2.75 2.75 0 0 1 5.5 0v2a.75.75 0 0 1-.75.75zm-3.25-1.5h2.5v-1.25a1.25 1.25 0 0 0-2.5 0z" transform="translate(-872.185 -399.743)"/>
    <g id="Group_1125" data-name="Group 1125" transform="translate(-872.185 -399.743)">
        <g id="Group_1124" data-name="Group 1124" style="clip-path:url(#clip-path)">
            <path id="Rectangle_97" data-name="Rectangle 97" class="cls-2" transform="translate(870.935 401.993)" d="M0 0h12v13H0z"/>
        </g>
    </g>
</svg>
