<svg data-name="icon/24x24/phone" xmlns="http://www.w3.org/2000/svg" width="21.156" height="21.154" viewBox="0 0 21.156 21.154">
    <g data-name="Group 789">
        <path data-name="Path 1022" d="M631.93 341.682a3.976 3.976 0 0 1-2.819-1.174l-1.982-1.982a2 2 0 0 1 0-2.828l2.626-2.626a2 2 0 0 1 2.744-.079l1.1.98a10.409 10.409 0 0 0 6.344-6.471l.04-.121-.857-.857a2 2 0 0 1 0-2.828l2.587-2.584a2 2 0 0 1 2.828 0l1.982 1.982a3.978 3.978 0 0 1 .966 4.093l-.41 1.23a20.093 20.093 0 0 1-12.649 12.647l-1.228.41a3.99 3.99 0 0 1-1.272.208zm-.761-7.2-2.626 2.626 1.982 1.982a1.993 1.993 0 0 0 2.046.484l1.229-.411a18.087 18.087 0 0 0 11.384-11.383l.411-1.23a1.987 1.987 0 0 0-.484-2.045l-1.982-1.983-2.587 2.584.9.9a1.886 1.886 0 0 1 .459 1.948l-.059.177a12.421 12.421 0 0 1-7.655 7.752 1.879 1.879 0 0 1-1.858-.368z" style="fill:#2a295c" transform="translate(-626.543 -320.528)"/>
    </g>
</svg>
