<svg id="icon_24x24_plus-circle-outline" data-name="icon/24x24/plus-circle-outline" xmlns="http://www.w3.org/2000/svg" width="22" height="22">
    <defs>
        <clipPath id="clip-path">
            <path id="Path_1029" data-name="Path 1029" class="cls-1" d="M807.129 320.112a11 11 0 1 1-11 11 11 11 0 0 1 11-11zm0 2a9 9 0 1 0 9 9 9 9 0 0 0-9-9zm0 4a1 1 0 0 1 .993.883l.007.117v3h3a1 1 0 0 1 .116 1.993l-.116.007h-3v3a1 1 0 0 1-1.994.117l-.006-.117v-3h-3a1 1 0 0 1-.117-1.993l.117-.007h3v-3a1 1 0 0 1 1-1z"/>
        </clipPath>
        <style>
            .cls-1{fill:#2a295c}
        </style>
    </defs>
    <g id="Group_973" data-name="Group 973" transform="translate(-796.129 -320.112)">
        <g id="Group_972" data-name="Group 972" style="clip-path:url(#clip-path)">
            <g id="Group_797" data-name="Group 797">
                <path id="Path_856" data-name="Path 856" class="cls-1" d="M791.129 315.112h32v32h-32z"/>
            </g>
        </g>
    </g>
</svg>
