<svg xmlns="http://www.w3.org/2000/svg" width="17" height="17" viewBox="0 0 17 17">
    <g data-name="icon/16x16/close-circle">
        <path data-name="Subtraction 6" d="M1915 16a8 8 0 1 1 8-8 8.009 8.009 0 0 1-8 8zm-.034-7.215 2.5 2.5a.582.582 0 1 0 .823-.823l-2.5-2.506 2.5-2.506a.582.582 0 1 0-.823-.823l-2.5 2.5-2.509-2.5a.582.582 0 0 0-.823.823l2.509 2.506-2.5 2.506a.582.582 0 1 0 .823.823l2.5-2.5z" transform="translate(-1906.5 .5)" style="fill:#18204b;stroke:transparent;stroke-miterlimit:10"/>
    </g>
</svg>
