<svg id="icon_24x24_download" data-name="icon/24x24/download" xmlns="http://www.w3.org/2000/svg" width="20" height="20.5" viewBox="0 0 20 20.5">
    <defs>
        <style>
            .cls-1{fill:#2a295c}
        </style>
    </defs>
    <g id="Group_721" data-name="Group 721" transform="translate(-796.154 -248.612)">
        <path id="Path_966" data-name="Path 966" class="cls-1" d="M813.154 269.112h-14a3 3 0 0 1-3-3v-3a1 1 0 1 1 2 0v3a1 1 0 0 0 1 1h14a1 1 0 0 0 1-1v-3a1 1 0 1 1 2 0v3a3 3 0 0 1-3 3z"/>
    </g>
    <g id="Group_722" data-name="Group 722" transform="translate(-796.154 -248.612)">
        <path id="Path_967" data-name="Path 967" class="cls-1" d="m806.154 264.526-6.707-6.707a1 1 0 0 1 1.414-1.414l4.293 4.293v-11.086a1 1 0 1 1 2 0V260.7l4.293-4.293a1 1 0 0 1 1.414 1.414z"/>
    </g>
</svg>
