<svg id="icon_16x16_PDF" data-name="icon/16x16/PDF" xmlns="http://www.w3.org/2000/svg" width="11" height="14.5" viewBox="0 0 11 14.5">
    <defs>
        <clipPath id="clip-path">
            <path id="Path_1124" data-name="Path 1124" d="M931.166 407.425a.43.43 0 0 1-.347.14 1.324 1.324 0 0 1-.693-.268c.745-.097 1.168-.025 1.04.128zm-2.71-.23-.385.115c.039-.089.077-.179.116-.255.09-.243.192-.485.282-.741a3.224 3.224 0 0 0 .283.358c.115.127.231.242.346.357-.205.051-.423.102-.642.171zM928.1 404c.013-.026.025-.064.128-.064a.19.19 0 0 1 .154.064 1.734 1.734 0 0 1-.038 1.149A1.848 1.848 0 0 1 928.1 404zm-1.824 5.017a.131.131 0 0 1-.1-.013c-.051-.038-.051-.064-.038-.089.026-.154.321-.434.963-.741a2.1 2.1 0 0 1-.828.847zm3.365-2.107c-.18-.153-.36-.344-.565-.549a3.222 3.222 0 0 1-.424-.6 2.819 2.819 0 0 0 .1-2 .59.59 0 0 0-.527-.268.541.541 0 0 0-.539.332 2.8 2.8 0 0 0 .475 1.991c-.1.332-.231.69-.385 1.086-.09.217-.193.434-.3.638-1.053.408-1.7.868-1.785 1.3a.508.508 0 0 0 .206.523.577.577 0 0 0 .347.128.7.7 0 0 0 .154-.025c.488-.128 1.014-.843 1.4-1.571a7.531 7.531 0 0 1 .8-.255c.346-.1.655-.179.924-.23a2.274 2.274 0 0 0 1.3.613.85.85 0 0 0 .681-.281.457.457 0 0 0 .128-.587c-.231-.355-.94-.432-1.993-.241z" style="fill:none"/>
        </clipPath>
        <style>
            .cls-5{fill:#18204b}
        </style>
    </defs>
    <g id="Group_1129" data-name="Group 1129" transform="translate(-923.435 -399.243)">
        <g id="Group_1128" data-name="Group 1128" style="clip-path:url(#clip-path)">
            <path id="Rectangle_99" data-name="Rectangle 99" transform="translate(920.685 398.493)" style="fill:#e02b3c" d="M0 0h16v16H0z"/>
        </g>
    </g>
    <path id="Path_1125" data-name="Path 1125" d="M931.166 407.425a.43.43 0 0 1-.347.14 1.324 1.324 0 0 1-.693-.268c.745-.097 1.168-.025 1.04.128zm-2.71-.23-.385.115c.039-.089.077-.179.116-.255.09-.243.192-.485.282-.741a3.224 3.224 0 0 0 .283.358c.115.127.231.242.346.357-.205.051-.423.102-.642.171zM928.1 404c.013-.026.025-.064.128-.064a.19.19 0 0 1 .154.064 1.734 1.734 0 0 1-.038 1.149A1.848 1.848 0 0 1 928.1 404zm-1.824 5.017a.131.131 0 0 1-.1-.013c-.051-.038-.051-.064-.038-.089.026-.154.321-.434.963-.741a2.1 2.1 0 0 1-.828.847zm3.365-2.107c-.18-.153-.36-.344-.565-.549a3.222 3.222 0 0 1-.424-.6 2.819 2.819 0 0 0 .1-2 .59.59 0 0 0-.527-.268.541.541 0 0 0-.539.332 2.8 2.8 0 0 0 .475 1.991c-.1.332-.231.69-.385 1.086-.09.217-.193.434-.3.638-1.053.408-1.7.868-1.785 1.3a.508.508 0 0 0 .206.523.574.574 0 0 0 .346.128.694.694 0 0 0 .155-.025c.488-.128 1.014-.843 1.4-1.571a7.531 7.531 0 0 1 .8-.255q.519-.153.924-.23a2.274 2.274 0 0 0 1.3.613.85.85 0 0 0 .681-.281.457.457 0 0 0 .128-.587c-.231-.355-.94-.432-1.993-.241z" transform="translate(-923.435 -399.243)" style="stroke:#e02b3c;stroke-miterlimit:10;stroke-width:.1px;fill:none"/>
    <path id="Path_1126" data-name="Path 1126" class="cls-5" d="M932.685 413.743h-7.5a1.752 1.752 0 0 1-1.75-1.75v-11a1.752 1.752 0 0 1 1.75-1.75h6.086a1.762 1.762 0 0 1 1.237.513l1.414 1.414a1.734 1.734 0 0 1 .513 1.237v9.586a1.753 1.753 0 0 1-1.75 1.75zm-7.5-13a.25.25 0 0 0-.25.25v11a.25.25 0 0 0 .25.25h7.5a.251.251 0 0 0 .25-.25v-9.586a.251.251 0 0 0-.074-.177l-1.414-1.414a.254.254 0 0 0-.176-.073z" transform="translate(-923.435 -399.243)"/>
    <path id="Path_1127" data-name="Path 1127" class="cls-5" d="M933.685 403.743h-2a1.752 1.752 0 0 1-1.75-1.75v-2h1.5v2a.25.25 0 0 0 .25.25h2z" transform="translate(-923.435 -399.243)"/>
</svg>
