<svg id="icon_24x24_share" data-name="icon/24x24/share" xmlns="http://www.w3.org/2000/svg" width="24" height="21.5">
    <defs>
        <style>
            .cls-1{fill:#2a295c;fill-rule:evenodd}
        </style>
    </defs>
    <path id="Path_1063" data-name="Path 1063" class="cls-1" d="m348.467-228.4-6.667-5a.5.5 0 0 0-.7.1.5.5 0 0 0-.1.3v4h-3a5.006 5.006 0 0 0-5 5v5a1 1 0 0 0 1 1 1 1 0 0 0 1-1v-5a3 3 0 0 1 3-3h3v4a.5.5 0 0 0 .5.5.5.5 0 0 0 .3-.1l6.667-5a.5.5 0 0 0 .1-.7.5.5 0 0 0-.1-.1z" transform="translate(-329 233.5)"/>
    <path id="Path_1061" data-name="Path 1061" class="cls-1" d="M351-214h-21a1 1 0 0 0-1 1 1 1 0 0 0 1 1h22a1 1 0 0 0 1-1v-6a1 1 0 0 0-1-1 1 1 0 0 0-1 1v5z" transform="translate(-329 233.5)"/>
</svg>
