<svg id="icon_24x24_eye-close" data-name="icon/24x24/eye-close" xmlns="http://www.w3.org/2000/svg" width="24.467" height="20.586" viewBox="0 0 24.467 20.586">
    <defs>
        <style>
            .cls-1{fill:#2a295c}
        </style>
    </defs>
    <g id="Group_725" data-name="Group 725" transform="translate(-862.143 -249.112)">
        <path id="Path_970" data-name="Path 970" class="cls-1" d="M874.377 267.112a9.454 9.454 0 0 1-2.239-.275 1 1 0 1 1 .478-1.941 7.472 7.472 0 0 0 1.764.216c4.51 0 8.45-4.395 9.737-6a21.418 21.418 0 0 0-2.409-2.558 1 1 0 1 1 1.338-1.486 23.384 23.384 0 0 1 3.135 3.448l.429.58-.416.59c-.213.305-5.294 7.426-11.817 7.426zm-5.837-2a1 1 0 0 1-.568-.178 23.016 23.016 0 0 1-5.4-5.226l-.43-.581.416-.59c.213-.3 5.3-7.425 11.818-7.425a10.965 10.965 0 0 1 5.28 1.49 1 1 0 0 1-1.01 1.727 8.943 8.943 0 0 0-4.294-1.217c-4.493 0-8.429 4.394-9.716 6a21.036 21.036 0 0 0 4.473 4.18 1 1 0 0 1-.57 1.822z"/>
    </g>
    <g id="Group_726" data-name="Group 726" transform="translate(-862.143 -249.112)">
        <path id="Path_971" data-name="Path 971" class="cls-1" d="M875.876 263.612a1 1 0 0 1-.271-1.962 2.4 2.4 0 0 0 1.652-1.663 1 1 0 1 1 1.927.531 4.405 4.405 0 0 1-3.036 3.056.981.981 0 0 1-.272.038zm-4.244-1.749a1 1 0 0 1-.768-.358 4.227 4.227 0 0 1-.987-2.712 4.374 4.374 0 0 1 4.47-4.318h.016a4.521 4.521 0 0 1 2.7.914 1 1 0 1 1-1.207 1.6 2.525 2.525 0 0 0-1.518-.51h-.057a2.392 2.392 0 0 0-2.406 2.337 2.219 2.219 0 0 0 .52 1.408 1 1 0 0 1-.124 1.409.989.989 0 0 1-.639.23z"/>
    </g>
    <g id="Group_727" data-name="Group 727" transform="translate(-862.143 -249.112)">
        <path id="Path_972" data-name="Path 972" class="cls-1" d="M865.377 269.7a1 1 0 0 1-.707-1.707l18.586-18.593a1 1 0 0 1 1.414 1.414L866.084 269.4a1 1 0 0 1-.707.3z"/>
    </g>
</svg>
