<svg id="icon_24x24_burger-menu" data-name="icon/24x24/burger-menu" xmlns="http://www.w3.org/2000/svg" width="20" height="16" viewBox="0 0 20 16">
    <defs>
        <style>
            .cls-1{fill:#2a295c}
        </style>
    </defs>
    <g id="Group_650" data-name="Group 650" transform="translate(-388.154 -251.112)">
        <path id="Path_928" data-name="Path 928" class="cls-1" d="M407.154 253.112h-18a1 1 0 0 1 0-2h18a1 1 0 0 1 0 2z"/>
    </g>
    <g id="Group_651" data-name="Group 651" transform="translate(-388.154 -251.112)">
        <path id="Path_929" data-name="Path 929" class="cls-1" d="M407.154 260.112h-18a1 1 0 0 1 0-2h18a1 1 0 0 1 0 2z"/>
    </g>
    <g id="Group_652" data-name="Group 652" transform="translate(-388.154 -251.112)">
        <path id="Path_930" data-name="Path 930" class="cls-1" d="M401.154 267.112h-12a1 1 0 0 1 0-2h12a1 1 0 0 1 0 2z"/>
    </g>
</svg>
