<svg id="icon_24x24_Q_A" data-name="icon/24x24/Q&amp;A" xmlns="http://www.w3.org/2000/svg" width="20" height="20.001" viewBox="0 0 20 20.001">
    <defs>
        <clipPath id="clip-path">
            <path id="Path_1032" data-name="Path 1032" class="cls-1" d="M900.129 322.112v-1a1 1 0 0 0-1 1zm18 0h1a1 1 0 0 0-1-1zm-18 18h-1a1 1 0 0 0 1.781.625zm4-5v-1a1 1 0 0 0-.781.375zm14 0v1a1 1 0 0 0 1-1zm-18-12h18v-2h-18zm1 12v-13h-2v13zm0 5v-5h-2v5zm2.219-5.625-4 5 1.562 1.249 4-5zm14.781-.375h-14v2h14zm-1-12v13h2v-13z"/>
        </clipPath>
        <clipPath id="clip-path-2">
            <path id="Path_1033" data-name="Path 1033" class="cls-1" d="M908.7 329.982h1.24v-.64l.98-1.16a3 3 0 0 0 .89-1.85c0-1.15-.66-1.72-2.05-1.72h-1.72v1.06h1.36c.67 0 1.17.18 1.17.79a2.319 2.319 0 0 1-.7 1.46l-1.17 1.38zm0 2.13h1.24v-1.25h-1.24z"/>
        </clipPath>
        <clipPath id="clip-path-3">
            <circle id="Ellipse_10" data-name="Ellipse 10" class="cls-1" cx="1" cy="1" r="1" transform="translate(909.129 339.112)"/>
        </clipPath>
        <clipPath id="clip-path-4">
            <circle id="Ellipse_11" data-name="Ellipse 11" class="cls-1" cx="1" cy="1" r="1" transform="translate(913.129 339.112)"/>
        </clipPath>
        <clipPath id="clip-path-5">
            <circle id="Ellipse_12" data-name="Ellipse 12" class="cls-1" cx="1" cy="1" r="1" transform="translate(917.129 339.112)"/>
        </clipPath>
        <style>
            .cls-1{fill:#2a295c}
        </style>
    </defs>
    <g id="Group_981" data-name="Group 981" transform="translate(-899.129 -321.112)">
        <g id="Group_980" data-name="Group 980" style="clip-path:url(#clip-path)">
            <g id="Group_802" data-name="Group 802">
                <path id="Path_865" data-name="Path 865" class="cls-1" d="M894.129 316.112h30v30h-30z"/>
            </g>
        </g>
    </g>
    <g id="Group_983" data-name="Group 983" transform="translate(-899.129 -321.112)">
        <g id="Group_982" data-name="Group 982" style="clip-path:url(#clip-path-2)">
            <g id="Group_803" data-name="Group 803">
                <path id="Path_867" data-name="Path 867" class="cls-1" d="M903.042 319.612h13.77v17.5h-13.77z"/>
            </g>
        </g>
    </g>
    <g id="Group_985" data-name="Group 985" transform="translate(-899.129 -321.112)">
        <g id="Group_984" data-name="Group 984" style="clip-path:url(#clip-path-3)">
            <g id="Group_804" data-name="Group 804">
                <path id="Path_869" data-name="Path 869" class="cls-1" d="M904.129 334.112h12v12h-12z"/>
            </g>
        </g>
    </g>
    <g id="Group_987" data-name="Group 987" transform="translate(-899.129 -321.112)">
        <g id="Group_986" data-name="Group 986" style="clip-path:url(#clip-path-4)">
            <g id="Group_805" data-name="Group 805">
                <path id="Path_871" data-name="Path 871" class="cls-1" d="M908.129 334.112h12v12h-12z"/>
            </g>
        </g>
    </g>
    <g id="Group_989" data-name="Group 989" transform="translate(-899.129 -321.112)">
        <g id="Group_988" data-name="Group 988" style="clip-path:url(#clip-path-5)">
            <g id="Group_806" data-name="Group 806">
                <path id="Path_873" data-name="Path 873" class="cls-1" d="M912.129 334.112h12v12h-12z"/>
            </g>
        </g>
    </g>
</svg>
