<svg id="icon_16x16_person" data-name="icon/16x16/person" xmlns="http://www.w3.org/2000/svg" width="13.374" height="16.003" viewBox="0 0 13.374 16.003">
    <defs>
        <style>
            .cls-1{fill:#18204b}
        </style>
    </defs>
    <path id="Path_1130" data-name="Path 1130" class="cls-1" d="M980.93 414.5a12.885 12.885 0 0 1-5.39-1.2l-1.292-.594.04-.521c.221-2.818 2.268-5.025 4.661-5.025h3.971c2.392 0 4.439 2.206 4.661 5.024l.041.523-1.33.606a12.887 12.887 0 0 1-5.362 1.187zm-5.079-2.7.315.145a11.256 11.256 0 0 0 9.5.011l.349-.159a3.492 3.492 0 0 0-3.1-3.129h-3.971a3.49 3.49 0 0 0-3.093 3.124z" transform="translate(-974.248 -398.493)"/>
    <path id="Path_1131" data-name="Path 1131" class="cls-1" d="M980.935 406.493a3.423 3.423 0 0 1-3.334-3.5v-1a3.337 3.337 0 1 1 6.667 0v1a3.423 3.423 0 0 1-3.333 3.5zm0-6.5a1.923 1.923 0 0 0-1.834 2v1a1.84 1.84 0 1 0 3.667 0v-1a1.924 1.924 0 0 0-1.833-2z" transform="translate(-974.248 -398.493)"/>
</svg>
