<svg id="icon_24x24_garbage" data-name="icon/24x24/garbage" xmlns="http://www.w3.org/2000/svg" width="20" height="21" viewBox="0 0 20 21">
    <defs>
        <style>
            .cls-1{fill:#2a295c}
        </style>
    </defs>
    <g id="Group_733" data-name="Group 733" transform="translate(-966.154 -248.112)">
        <path id="Path_977" data-name="Path 977" class="cls-1" d="M982.154 269.112h-12a2 2 0 0 1-2-2v-12h16v12a2 2 0 0 1-2 2zm-12-12v10h12v-10z"/>
    </g>
    <g id="Group_734" data-name="Group 734" transform="translate(-966.154 -248.112)">
        <path id="Path_978" data-name="Path 978" class="cls-1" d="M984.154 257.112h-16a2 2 0 0 1-2-2v-2a2 2 0 0 1 2-2h16a2 2 0 0 1 2 2v2a2 2 0 0 1-2 2zm-16-4v2h16v-2z"/>
    </g>
    <g id="Group_735" data-name="Group 735" transform="translate(-966.154 -248.112)">
        <path id="Path_979" data-name="Path 979" class="cls-1" d="M980.154 253.112h-8v-3a2 2 0 0 1 2-2h4a2 2 0 0 1 2 2zm-6-2h4v-1h-4z"/>
    </g>
    <g id="Group_736" data-name="Group 736" transform="translate(-966.154 -248.112)">
        <path id="Path_980" data-name="Path 980" class="cls-1" d="M974.154 265.112a1 1 0 0 1-1-1v-4a1 1 0 1 1 2 0v4a1 1 0 0 1-1 1z"/>
    </g>
    <g id="Group_737" data-name="Group 737" transform="translate(-966.154 -248.112)">
        <path id="Path_981" data-name="Path 981" class="cls-1" d="M978.154 265.112a1 1 0 0 1-1-1v-4a1 1 0 1 1 2 0v4a1 1 0 0 1-1 1z"/>
    </g>
</svg>
