<svg id="icon_24x24_card-plus" data-name="icon/24x24/card-plus" xmlns="http://www.w3.org/2000/svg" width="24" height="20" viewBox="0 0 24 20">
    <defs>
        <clipPath id="clip-path">
            <path id="Path_943" data-name="Path 943" class="cls-1" d="M490.071 258.4h11.917a2.75 2.75 0 0 1-2.75 2.75h-9.167z"/>
        </clipPath>
        <clipPath id="clip-path-2">
            <path id="Path_944" data-name="Path 944" class="cls-1" d="M501.071 262.987h7.329a1.833 1.833 0 0 1-1.833 1.833h-6.417z"/>
        </clipPath>
        <style>
            .cls-1{fill:#2a295c}
        </style>
    </defs>
    <g id="Group_1015" data-name="Group 1015" transform="translate(-488.154 -249.112)">
        <g id="Group_675" data-name="Group 675">
            <path id="Path_942" data-name="Path 942" class="cls-1" d="M508.154 269.112h-16a4 4 0 0 1-4-4v-8a4 4 0 0 1 4-4h6.5a1 1 0 0 1 0 2h-6.5a2 2 0 0 0-2 2v8a2 2 0 0 0 2 2h16a2 2 0 0 0 2-2v-6a1 1 0 1 1 2 0v6a4 4 0 0 1-4 4z"/>
        </g>
        <g id="Group_867" data-name="Group 867">
            <g id="Group_866" data-name="Group 866" style="clip-path:url(#clip-path)">
                <g id="Group_676" data-name="Group 676">
                    <path id="Path_705" data-name="Path 705" class="cls-1" d="M485.071 253.4h21.917v12.75h-21.917z"/>
                </g>
            </g>
        </g>
        <g id="Group_869" data-name="Group 869">
            <g id="Group_868" data-name="Group 868" style="clip-path:url(#clip-path-2)">
                <g id="Group_677" data-name="Group 677">
                    <path id="Path_707" data-name="Path 707" class="cls-1" d="M495.154 257.987H513.4v11.833h-18.25z"/>
                </g>
            </g>
        </g>
        <g id="Group_678" data-name="Group 678">
            <path id="Path_945" data-name="Path 945" class="cls-1" d="M507.154 259.112a1 1 0 0 1-1-1v-8a1 1 0 0 1 2 0v8a1 1 0 0 1-1 1z"/>
        </g>
        <g id="Group_679" data-name="Group 679">
            <path id="Path_946" data-name="Path 946" class="cls-1" d="M511.154 255.112h-8a1 1 0 0 1 0-2h8a1 1 0 0 1 0 2z"/>
        </g>
    </g>
</svg>
