<svg id="icon_24x24_question-circle-outline" data-name="icon/24x24/question-circle-outline" xmlns="http://www.w3.org/2000/svg" width="22" height="22" viewBox="0 0 22 22">
    <defs>
        <clipPath id="clip-path">
            <path id="Path_1035" data-name="Path 1035" class="cls-1" d="M977.129 320.112a11 11 0 1 1-11 11 11 11 0 0 1 11-11zm0 2a9 9 0 1 0 9 9 9 9 0 0 0-9-9zm.112 12.984a1.095 1.095 0 0 1 1.056 1.056 1.032 1.032 0 0 1-.32.752 1 1 0 0 1-.736.3 1.025 1.025 0 0 1-1.052-1.052 1 1 0 0 1 .3-.736 1.028 1.028 0 0 1 .752-.316zm.176-9.6a3.634 3.634 0 0 1 1.248.208 2.815 2.815 0 0 1 1.024.576 2.478 2.478 0 0 1 .672.928 2.9 2.9 0 0 1 .256 1.248 3.011 3.011 0 0 1-.176 1.072 3.264 3.264 0 0 1-.5.848l-.96.992-.16.144c-.171.16-.309.3-.416.416a1.566 1.566 0 0 0-.24.352 1.463 1.463 0 0 0-.112.4 4.2 4.2 0 0 0-.032.56v.7h-1.536v-.976a3.344 3.344 0 0 1 .064-.72 1.839 1.839 0 0 1 .192-.512 1.882 1.882 0 0 1 .336-.448c.149-.149.331-.325.544-.528l.512-.48q.245-.244.464-.512a2.744 2.744 0 0 0 .336-.56 1.64 1.64 0 0 0 0-1.344 1.546 1.546 0 0 0-.9-.9 1.661 1.661 0 0 0-.656-.128 1.732 1.732 0 0 0-1.28.5 2.174 2.174 0 0 0-.576 1.3l-1.632-.16a3.357 3.357 0 0 1 1.152-2.176 3.57 3.57 0 0 1 2.372-.8z"/>
        </clipPath>
        <style>
            .cls-1{fill:#2a295c}
        </style>
    </defs>
    <g id="Group_995" data-name="Group 995" transform="translate(-966.129 -320.112)">
        <g id="Group_994" data-name="Group 994" style="clip-path:url(#clip-path)">
            <g id="Group_809" data-name="Group 809">
                <path id="Path_879" data-name="Path 879" class="cls-1" d="M961.129 315.112h32v32h-32z"/>
            </g>
        </g>
    </g>
</svg>
