<svg id="icon_16x16_eye-close" data-name="icon/16x16/eye-close" xmlns="http://www.w3.org/2000/svg" width="14" height="13">
    <defs>
        <clipPath id="clip-path">
            <path id="Path_1099" data-name="Path 1099" d="M643.31 404.117a2.894 2.894 0 0 0-.375-.024 2.52 2.52 0 0 0-2.625 2.4 2.215 2.215 0 0 0 .07.555l-1.852 1.851a13.523 13.523 0 0 1-2.593-2.406s3.134-4 7-4a6.183 6.183 0 0 1 1.74.26zm-2.115 6.116a6.177 6.177 0 0 0 1.74.26c3.866 0 7-4 7-4a13.55 13.55 0 0 0-2.594-2.406l-1.852 1.852a2.21 2.21 0 0 1 .071.554 2.52 2.52 0 0 1-2.625 2.4 2.9 2.9 0 0 1-.376-.024z" style="fill:none;clip-rule:evenodd"/>
        </clipPath>
        <style>
            .cls-3{fill:#18204b}
        </style>
    </defs>
    <g id="Group_1091" data-name="Group 1091" transform="translate(-635.935 -399.993)">
        <g id="Group_1090" data-name="Group 1090" style="clip-path:url(#clip-path)">
            <path id="Rectangle_79" data-name="Rectangle 79" class="cls-3" transform="translate(630.935 397.493)" d="M0 0h24v18H0z"/>
        </g>
    </g>
    <path id="Path_1100" data-name="Path 1100" class="cls-3" d="M636.935 412.993a.5.5 0 0 1-.354-.853l12-12a.5.5 0 0 1 .707.707l-12 12a.5.5 0 0 1-.353.146z" transform="translate(-635.935 -399.993)"/>
</svg>
