<svg data-name="icon/24x24/warning" xmlns="http://www.w3.org/2000/svg" width="18.002" height="16.001" viewBox="0 0 18.002 16.001">
    <path data-name="Path 916" d="M1249.139 337.5a1 1 0 0 1-.988-1.012 1.015 1.015 0 0 1 1.008-1.015 1 1 0 0 1 .988 1.011v.024a1.039 1.039 0 0 1-1.008.992zm-.257-9.12a1.025 1.025 0 0 1 1.167.558.9.9 0 0 1 .079.5c-.04.5-.06 1-.079 1.514-.04.776-.1 1.573-.139 2.349-.02.239-.02.478-.039.737a.75.75 0 0 1-.752.737.76.76 0 0 1-.751-.717c-.059-1.214-.138-2.429-.2-3.644l-.06-.976a1.094 1.094 0 0 1 .774-1.057zm9.093 9.518-7.867-13.72a1.127 1.127 0 0 0-1.957 0l-7.867 13.72a1.138 1.138 0 0 0 .968 1.713h15.734a1.141 1.141 0 0 0 .989-1.713z" transform="translate(-1240.127 -323.611)" style="fill:#ea444e;fill-rule:evenodd"/>
</svg>
