<svg data-name="icon/24x24/business-affiliation-mono-color" xmlns="http://www.w3.org/2000/svg" width="20" height="19.723" viewBox="0 0 20 19.723">
    <path data-name="Path 1069" d="M175.315-219.2a2.609 2.609 0 0 1-2.305 2.792h-.315l.024-3.494a3.624 3.624 0 0 0-3.714-3.911 3.736 3.736 0 0 0-3.724 3.911l.023 3.565h-.315a2.608 2.608 0 0 1-2.3-2.792l-.083-7.182h.109a6.014 6.014 0 0 0 1.88-.27l.3-.1a4.836 4.836 0 0 0 1.973.374A4.52 4.52 0 0 0 169-227.1a4.52 4.52 0 0 0 2.136.79 4.838 4.838 0 0 0 1.974-.374l.3.1a6.014 6.014 0 0 0 1.88.27h.109zm-8.5 2.878.068-3.785c.047-1.909 2.087-2.07 2.087-2.07a1.965 1.965 0 0 1 2.142 2.07l.068 3.724zm-5.746-13.922c.428-1.709 1.628-2.455 3.438-2.53h.213l-.013.01a4.289 4.289 0 0 0-1.439 2.389 3.354 3.354 0 0 0 .337 2.621 3.273 3.273 0 0 1-.742.079c-1.715-.003-2.163-1.07-1.791-2.572zm4.153 0a3.065 3.065 0 0 1 2.688-2.454 24.889 24.889 0 0 0-.193 4.866 1.551 1.551 0 0 1-.7.158c-1.717-.004-2.169-1.071-1.792-2.573zm4.3-2.52a3.191 3.191 0 0 1 3.249 2.52c.377 1.5-.076 2.569-1.793 2.569a1.689 1.689 0 0 1-1.511-.727 80.436 80.436 0 0 1 .059-4.366zm3.964-.01c1.81.075 3.011.821 3.439 2.53.376 1.5-.077 2.569-1.795 2.569a3.273 3.273 0 0 1-.742-.079 3.354 3.354 0 0 0 .337-2.621 4.291 4.291 0 0 0-1.44-2.389l-.012-.01zm5.393 2.4c-.563-2.415-2.619-3.511-5.029-3.613v-.009l-.1.005c-.091 0-.182-.005-.274-.005l-3.835.006c-.106 0-.212-.006-.317-.006v.007h-.653V-234c-.107 0-.212 0-.318.006l-3.831-.006c-.092 0-.183 0-.274.005l-.1-.005v.009c-2.41.1-4.467 1.2-5.029 3.613a3 3 0 0 0 1.493 3.63l-.031 7.416c.043 2.474 1.105 4.431 4.288 5.04h.733l-.005.013 3.371-.007 3.316.007v-.013h.853c3.183-.609 4.247-2.566 4.287-5.04l-.031-7.416a3 3 0 0 0 1.49-3.63z" transform="translate(-159 234)" style="fill:#2a295c;fill-rule:evenodd"/>
</svg>
