<svg id="icon_24x24_upload" data-name="icon/24x24/upload" xmlns="http://www.w3.org/2000/svg" width="20" height="20.914" viewBox="0 0 20 20.914">
    <defs>
        <style>
            .cls-1{fill:#2a295c}
        </style>
    </defs>
    <g id="Group_820" data-name="Group 820" transform="translate(-1137.129 -320.198)">
        <path id="Path_1043" data-name="Path 1043" class="cls-1" d="M1154.129 341.112h-14a3 3 0 0 1-3-3v-3a1 1 0 1 1 2 0v3a1 1 0 0 0 1 1h14a1 1 0 0 0 1-1v-3a1 1 0 1 1 2 0v3a3 3 0 0 1-3 3z"/>
    </g>
    <g id="Group_821" data-name="Group 821" transform="translate(-1137.129 -320.198)">
        <path id="Path_1044" data-name="Path 1044" class="cls-1" d="M1147.129 336.112a1 1 0 0 1-1-1v-11.086l-4.293 4.293a1 1 0 0 1-1.414-1.414l6.707-6.707 6.707 6.707a1 1 0 0 1-1.414 1.414l-4.293-4.293v11.086a1 1 0 0 1-1 1z"/>
    </g>
</svg>
