<svg id="icon_24x24_talk" data-name="icon/24x24/talk" xmlns="http://www.w3.org/2000/svg" width="22.249" height="20.827" viewBox="0 0 22.249 20.827">
    <defs>
        <clipPath id="clip-path">
            <path id="Path_1042" data-name="Path 1042" class="cls-1" d="M1117.9 330.964a1.344 1.344 0 1 0-1.344-1.344 1.363 1.363 0 0 0 1.344 1.344zm-10.263 4.374h-1.931a1.4 1.4 0 0 1-1.4-1.4v-9.247a1.4 1.4 0 0 1 1.4-1.4h15.14a1.4 1.4 0 0 1 1.4 1.4v9.247a1.4 1.4 0 0 1-1.4 1.4h-8.586a1.215 1.215 0 0 0-.747.289l-2.786 2.691v-1.89a1.091 1.091 0 0 0-1.09-1.09zm13.158-14.226h-15.14a3.56 3.56 0 0 0-3.529 3.58v9.247a3.584 3.584 0 0 0 3.58 3.58h.891v3.329a1.019 1.019 0 0 0 .628.976 1.058 1.058 0 0 0 .412.115 1.212 1.212 0 0 0 .747-.289l4.283-4.131h8.128a3.584 3.584 0 0 0 3.58-3.58v-9.247a3.584 3.584 0 0 0-3.575-3.58zm-7.57 9.853a1.344 1.344 0 1 0-1.344-1.344 1.363 1.363 0 0 0 1.344 1.344zm-3.33-1.344a1.344 1.344 0 1 0-1.344 1.344 1.361 1.361 0 0 0 1.344-1.344z"/>
        </clipPath>
        <style>
            .cls-1{fill:#2a295c}
        </style>
    </defs>
    <g id="Group_1003" data-name="Group 1003" transform="translate(-1102.129 -321.112)">
        <g id="Group_1002" data-name="Group 1002" style="clip-path:url(#clip-path)">
            <g id="Group_819" data-name="Group 819">
                <path id="Path_893" data-name="Path 893" class="cls-1" d="M1097.129 316.112h32.249v30.828h-32.249z"/>
            </g>
        </g>
    </g>
</svg>
