<svg id="icon_24x24_parce-tracking" data-name="icon/24x24/parce-tracking" xmlns="http://www.w3.org/2000/svg" width="24" height="18" viewBox="0 0 24 18">
    <defs>
        <clipPath id="clip-path">
            <path id="Path_1052" data-name="Path 1052" d="m513.693 212.465-4.984-2.848-4.985 2.848 4.985 2.848zm-3.984 10.277 5-2.857v-5.7l-5 2.857zm-7-8.554v5.7l5 2.857v-5.7zm6.5-6.591a1 1 0 0 0-.993 0l-7 4a1 1 0 0 0-.5.868v8a1 1 0 0 0 .5.868l7 4a1 1 0 0 0 .993 0l7-4a1 1 0 0 0 .5-.868v-8a1 1 0 0 0-.5-.868z" style="clip-rule:evenodd;fill:#2a295c"/>
        </clipPath>
        <style>
            .cls-3{fill:#2a295c}
        </style>
    </defs>
    <g id="Group_1053" data-name="Group 1053" transform="translate(-492.709 -207.465)">
        <g id="Group_1052" data-name="Group 1052" style="clip-path:url(#clip-path)">
            <path id="Rectangle_60" data-name="Rectangle 60" class="cls-3" transform="translate(495.709 202.465)" d="M0 0h26v28H0z"/>
        </g>
    </g>
    <path id="Path_1053" data-name="Path 1053" class="cls-3" d="M500.709 225.465h-6a1 1 0 0 1 0-2h6a1 1 0 0 1 0 2z" transform="translate(-492.709 -207.465)"/>
    <path id="Path_1054" data-name="Path 1054" class="cls-3" d="M500.709 209.465h-4a1 1 0 0 1 0-2h4a1 1 0 0 1 0 2z" transform="translate(-492.709 -207.465)"/>
    <path id="Path_1055" data-name="Path 1055" class="cls-3" d="M496.709 217.465h-3a1 1 0 0 1 0-2h3a1 1 0 0 1 0 2z" transform="translate(-492.709 -207.465)"/>
</svg>
