<svg id="icon_24x24_hourglass" data-name="icon/24x24/hourglass" xmlns="http://www.w3.org/2000/svg" width="16.02" height="19" viewBox="0 0 16.02 19">
    <defs>
        <clipPath id="clip-path">
            <path id="Path_993" data-name="Path 993" class="cls-1" d="M167.4 321.112a1.813 1.813 0 0 1 1.729 1.893c0 .036 0 .071-.008.107a9.562 9.562 0 0 1-1.8 5.171 6.907 6.907 0 0 1-3.16 2.327 6.889 6.889 0 0 1 3.16 2.325 9.556 9.556 0 0 1 1.8 5.177 1.813 1.813 0 0 1-1.614 1.992c-.036 0-.071.006-.107.008h-12.55a1.814 1.814 0 0 1-1.729-1.893c0-.036 0-.072.008-.107a9.552 9.552 0 0 1 1.8-5.171 6.9 6.9 0 0 1 3.16-2.327 6.9 6.9 0 0 1-3.16-2.325 9.553 9.553 0 0 1-1.808-5.177 1.813 1.813 0 0 1 1.614-1.992c.036 0 .071-.007.107-.008zm-1.434 13.129a5.4 5.4 0 0 0-3.84-2.073v3.944h4.813a6.43 6.43 0 0 0-.973-1.871zm1.37-11.129h-12.418a7.376 7.376 0 0 0 1.37 3.871 6.568 6.568 0 0 0 9.682 0 7.376 7.376 0 0 0 1.37-3.871zm-11.052 11.129a6.428 6.428 0 0 0-.972 1.871h4.813v-3.943a5.4 5.4 0 0 0-3.837 2.072z"/>
        </clipPath>
        <style>
            .cls-1{fill:#2a295c}
        </style>
    </defs>
    <g id="Group_923" data-name="Group 923" transform="translate(-153.119 -321.112)">
        <g id="Group_922" data-name="Group 922" style="clip-path:url(#clip-path)">
            <g id="Group_756" data-name="Group 756">
                <path id="Path_789" data-name="Path 789" class="cls-1" d="M148.129 316.112h26v29h-26z"/>
            </g>
        </g>
    </g>
</svg>
