<svg xmlns="http://www.w3.org/2000/svg" width="17" height="17" viewBox="0 0 17 17">
    <g data-name="icon/16x16/Help">
        <path data-name="Subtraction 7" d="M1915 16a8 8 0 1 1 8-8 8.009 8.009 0 0 1-8 8zm-1.208-4.864v1.5h1.488v-1.5zm-.792-7.5v1.273h1.632c.945 0 1.4.31 1.4.949a2.772 2.772 0 0 1-.84 1.751l-1.4 1.656v.816h1.488v-.768l1.176-1.392a3.618 3.618 0 0 0 1.068-2.22c0-1.389-.8-2.064-2.461-2.064z" transform="translate(-1906.5 .5)" style="fill:#626cb0;stroke:transparent;stroke-miterlimit:10"/>
    </g>
</svg>
