<svg id="icon_24x24_calendar" data-name="icon/24x24/calendar" xmlns="http://www.w3.org/2000/svg" width="21" height="22" viewBox="0 0 21 22">
    <defs>
        <clipPath id="clip-path">
            <path id="Path_938" data-name="Path 938" class="cls-1" d="M455.654 251.112a1 1 0 0 1 1-1h19a1 1 0 0 1 1 1v16.5a2 2 0 0 1-2 2h-17a2 2 0 0 1-2-2z"/>
        </clipPath>
        <clipPath id="clip-path-2">
            <path id="Rectangle_36" data-name="Rectangle 36" class="cls-1" transform="translate(435.154 230.112)" d="M0 0h62v60H0z"/>
        </clipPath>
        <clipPath id="clip-path-3">
            <path id="Rectangle_35" data-name="Rectangle 35" class="cls-1" transform="translate(455.154 250.112)" d="M0 0h22v20H0z"/>
        </clipPath>
        <clipPath id="clip-path-4">
            <rect id="Rectangle_37" data-name="Rectangle 37" class="cls-1" width="20" height="3.5" rx=".5" transform="translate(456.154 250.612)"/>
        </clipPath>
        <style>
            .cls-1{fill:#2a295c}
        </style>
    </defs>
    <g id="Group_1014" data-name="Group 1014" transform="translate(-455.654 -247.612)">
        <g id="Group_662" data-name="Group 662">
            <path id="Path_933" data-name="Path 933" class="cls-1" d="M463.259 260.112h-2.105a1 1 0 0 1 0-2h2.105a1 1 0 0 1 0 2z"/>
        </g>
        <g id="Group_663" data-name="Group 663">
            <path id="Path_934" data-name="Path 934" class="cls-1" d="M471.154 260.112h-2.1a1 1 0 0 1 0-2h2.1a1 1 0 0 1 0 2z"/>
        </g>
        <g id="Group_664" data-name="Group 664">
            <path id="Path_935" data-name="Path 935" class="cls-1" d="M463.259 264.862h-2.105a1 1 0 0 1 0-2h2.105a1 1 0 0 1 0 2z"/>
        </g>
        <g id="Group_665" data-name="Group 665">
            <path id="Path_936" data-name="Path 936" class="cls-1" d="M471.154 264.862h-2.1a1 1 0 0 1 0-2h2.1a1 1 0 0 1 0 2z"/>
        </g>
        <g id="Group_863" data-name="Group 863">
            <g id="Group_862" data-name="Group 862" style="clip-path:url(#clip-path)">
                <g id="Group_670" data-name="Group 670">
                    <g id="Group_669" data-name="Group 669">
                        <g id="Group_861" data-name="Group 861">
                            <g id="Group_860" data-name="Group 860" style="clip-path:url(#clip-path-2)">
                                <g id="Group_668" data-name="Group 668">
                                    <g id="Group_859" data-name="Group 859">
                                        <g id="Group_858" data-name="Group 858" style="clip-path:url(#clip-path-3)">
                                            <g id="Group_667" data-name="Group 667">
                                                <g id="Group_666" data-name="Group 666">
                                                    <path id="Path_937" data-name="Path 937" class="cls-1" d="M474.654 271.612h-17a4 4 0 0 1-4-4v-16.5a3 3 0 0 1 3-3h19a3 3 0 0 1 3 3v16.5a4 4 0 0 1-4 4zm-17-19.5v15.5h17v-15.5z"/>
                                                </g>
                                            </g>
                                        </g>
                                    </g>
                                </g>
                            </g>
                        </g>
                    </g>
                </g>
            </g>
        </g>
        <g id="Group_671" data-name="Group 671">
            <path id="Path_939" data-name="Path 939" class="cls-1" d="M459.4 253.662a1 1 0 0 1-1-1v-4.05a1 1 0 0 1 2 0v4.05a1 1 0 0 1-1 1z"/>
        </g>
        <g id="Group_672" data-name="Group 672">
            <path id="Path_940" data-name="Path 940" class="cls-1" d="M472.9 253.662a1 1 0 0 1-1-1v-4.05a1 1 0 0 1 2 0v4.05a1 1 0 0 1-1 1z"/>
        </g>
        <g id="Group_865" data-name="Group 865">
            <g id="Group_864" data-name="Group 864" style="clip-path:url(#clip-path-4)">
                <g id="Group_673" data-name="Group 673">
                    <path id="Path_701" data-name="Path 701" class="cls-1" d="M451.154 245.612h30v13.5h-30z"/>
                </g>
            </g>
        </g>
        <g id="Group_674" data-name="Group 674">
            <path id="Path_941" data-name="Path 941" class="cls-1" d="M475.654 254.612h-19a1 1 0 0 1-1-1v-2.5a1 1 0 0 1 1-1h19a1 1 0 0 1 1 1v2.5a1 1 0 0 1-1 1zm-19-3.5v2.5h19v-2.5zm0-.5v.5z"/>
        </g>
    </g>
</svg>
